<?xml version="1.0" encoding="UTF-8"?>
<svg id="Layer_1" data-name="Layer 1" xmlns="http://www.w3.org/2000/svg" viewBox="0 0 32 32">
  <defs>
    <style>
      .cls-1 {
        fill: #e368a3;
      }

      .cls-2 {
        fill: #040404;
      }
    </style>
  </defs>
  <path class="cls-2" d="M25.44,13.64v-1.28h-1.29v-1.28h-2.56v-1.13h-3.46s-.08-.07-.13-.05v-1.18h-2.51V3.69h-1.31s-.08-.07-.08-.07v-1.26h-2.51v1.26s-.07.07-.08.07h-1.3v10.98h-1.24v-1.21l-.07-.08h-3.67v3.7h1.23v1.38h1.23v2.46h1.23v2.57h1.23v2.41h1.34v3.74h12.66v-3.67l.08-.07h1.21v-3.69h1.33v-8.57h-1.33ZM25.38,22.15h-1.33v3.75h-1.23v2.33s-.07.08-.08.08h-9.87v-2.41h-1.33l-.05-2.41h-1.11s-.07-.07-.07-.08v-2.46s-.07-.08-.08-.08h-1.15v-2.38s-.07-.08-.08-.08h-1.21v-1.31l-.07-.07h-1.21v-2.36h2.41v1.18h1.29v2.51c.37.03.83.1,1.2.05.05,0,.18-.02.18-.08V3.77s.07-.08.08-.08h2.36s.07.07.07.08v11.05h1.39v-4.87h2.46v4.87h1.38v-3.69h2.21v5.02h1.38v-3.74h1.18v1.23c.05-.02.11.05.13.05h1.15v8.46Z"/>
  <path class="cls-1" d="M25.38,13.69v8.46h-1.33v3.75h-1.23v2.33s-.07.08-.08.08h-9.87v-2.41h-1.33l-.05-2.41h-1.11s-.07-.07-.07-.08v-2.46s-.07-.08-.08-.08h-1.15v-2.38s-.07-.08-.08-.08h-1.21v-1.31l-.07-.07h-1.21v-2.36h2.41v1.18h1.29v2.51c.37.03.83.1,1.2.05.05,0,.18-.02.18-.08V3.77s.07-.08.08-.08h2.36s.07.07.07.08v11.05h1.39v-4.87h2.46v4.87h1.38v-3.69h2.21v5.02h1.38v-3.74h1.18v1.23c.05-.02.11.05.13.05h1.15Z"/>
</svg>