<?xml version="1.0" encoding="UTF-8"?>
<svg id="Layer_1" data-name="Layer 1" xmlns="http://www.w3.org/2000/svg" viewBox="0 0 640 1136">
  <defs>
    <style>
      .cls-1, .cls-2, .cls-3, .cls-4, .cls-5, .cls-6 {
        stroke: #0a0a07;
        stroke-miterlimit: 10;
      }

      .cls-1, .cls-3, .cls-4, .cls-5, .cls-6 {
        stroke-width: 3px;
      }

      .cls-1, .cls-7 {
        fill: #2f2f27;
      }

      .cls-2 {
        stroke-width: 6px;
      }

      .cls-2, .cls-4 {
        fill: none;
      }

      .cls-3 {
        fill: #11110c;
      }

      .cls-5 {
        fill: #24241d;
      }

      .cls-6 {
        fill: #21211a;
      }
    </style>
  </defs>
  <path class="cls-2" d="M319.27,1038.29c-36.63.43-73.33.88-109.96.03h-.15c-4.14-.1-8.27-.21-12.4-.34-.85-.02-1.7-.05-2.54-.08-8.48-.27-16.94-.64-25.4-1.09,0,0-.02,0-.03-.01-.88-.03-1.77-.09-2.65-.14-4.57-.26-8.95-.48-13.14-.66h-.06c-12.86-.56-24.03-.77-33.7-1.05h0c-11.11-.33-20.28-.76-27.85-1.92h0c-9.66-1.48-16.73-4.15-21.93-9.31h0c-.44-.45-.87-.9-1.29-1.38-4.67-5.34-7.71-13.07-9.72-24.31-.78-4.32-1.4-9.16-1.92-14.6v-.05c-.61-6.38-1.04-13.58-1.39-21.68-.43-10.07-.7-21.54-.93-34.63,0-.03,0-.08,0-.13-.11-6.64-.22-13.68-.33-21.17-.25-4.27-.46-8.55-.65-12.84-.62-13.24-1.03-26.53-1.4-39.82v-.09c-.34-12.48-.62-24.95-.94-37.37-.24-9.31-.51-18.59-.85-27.83-.36-20.86,1.08-43.09.39-64.49v-.06c-.09-2.78-.22-5.54-.39-8.28,0-.25-.03-.5-.05-.74-.26-4.14-.64-8.24-1.14-12.28-.09-1.34-.17-2.69-.25-4.04-.79-13.05-1.3-26.67-1.61-40.62,0-.03,0-.08,0-.11-.73-31.97-.41-67.8-.08-100.74-.33-32.94-.64-68.77.08-100.74,0-.03,0-.08,0-.11.31-13.95.82-27.56,1.61-40.62.08-1.35.16-2.7.25-4.04.51-4.04.88-8.13,1.14-12.28.02-.24.04-.49.05-.74.17-2.75.3-5.5.39-8.28v-.06c.69-21.41-.75-43.64-.39-64.49.34-9.23.62-18.51.85-27.83.33-12.41.61-24.88.94-37.37v-.09c.36-13.28.78-26.58,1.4-39.82.19-4.29.41-8.57.65-12.84.11-7.48.22-14.53.33-21.17,0-.05,0-.09,0-.13.24-13.09.51-24.56.93-34.63.34-8.1.78-15.3,1.39-21.68v-.05c.52-5.43,1.13-10.27,1.92-14.6,2.02-11.25,5.05-18.97,9.72-24.31.42-.48.84-.94,1.29-1.37h0c5.2-5.17,12.27-7.85,21.93-9.32h0c7.57-1.17,16.74-1.59,27.85-1.92h0c9.68-.29,20.84-.49,33.7-1.05h.06c4.19-.18,8.58-.4,13.14-.66.88-.05,1.77-.1,2.65-.14,0-.01.02-.01.03-.01,8.46-.45,16.92-.81,25.4-1.09.84-.03,1.69-.06,2.54-.08,4.13-.14,8.26-.24,12.4-.34h.15c36.63-.85,73.32-.4,109.96.03,36.63-.43,73.33-.88,109.96-.03h.15c4.14.1,8.27.21,12.4.34.85.02,1.7.05,2.54.08,8.48.27,16.94.64,25.4,1.09,0,0,.02,0,.03.01.88.03,1.77.09,2.65.14,4.57.26,8.95.48,13.14.66h.06c12.86.56,24.03.77,33.7,1.05h0c11.11.33,20.28.76,27.85,1.92h0c9.66,1.48,16.73,4.15,21.93,9.31h0c.44.45.87.9,1.29,1.38,4.67,5.34,7.71,13.07,9.72,24.31.78,4.32,1.4,9.16,1.92,14.6v.05c.61,6.38,1.04,13.58,1.39,21.68.43,10.07.7,21.54.93,34.63,0,.03,0,.08,0,.13.11,6.64.22,13.68.33,21.17.25,4.27.46,8.55.65,12.84.62,13.24,1.03,26.53,1.4,39.82v.09c.34,12.48.62,24.95.94,37.37.24,9.31.51,18.59.85,27.83.36,20.86-1.08,43.09-.39,64.49v.06c.09,2.78.22,5.54.39,8.28,0,.25.03.5.05.74.26,4.14.64,8.24,1.14,12.28.09,1.34.17,2.69.25,4.04.79,13.05,1.3,26.67,1.61,40.62,0,.03,0,.08,0,.11.73,31.97.41,67.8.08,100.74.33,32.94.64,68.77-.08,100.74,0,.03,0,.08,0,.11-.31,13.95-.82,27.56-1.61,40.62-.08,1.35-.16,2.7-.25,4.04-.51,4.04-.88,8.13-1.14,12.28-.02.24-.04.49-.05.74-.17,2.75-.3,5.5-.39,8.28v.06c-.69,21.41.75,43.64.39,64.49-.34,9.23-.62,18.51-.85,27.83-.33,12.41-.61,24.88-.94,37.37v.09c-.36,13.28-.78,26.58-1.4,39.82-.19,4.29-.41,8.57-.65,12.84-.11,7.48-.22,14.53-.33,21.17,0,.05,0,.09,0,.13-.24,13.09-.51,24.56-.93,34.63-.34,8.1-.78,15.3-1.39,21.68v.05c-.52,5.43-1.13,10.27-1.92,14.6-2.02,11.25-5.05,18.97-9.72,24.31-.42.48-.84.94-1.29,1.37h0c-5.2,5.17-12.27,7.85-21.93,9.32h0c-7.57,1.17-16.74,1.59-27.85,1.92h0c-9.68.29-20.84.49-33.7,1.05h-.06c-4.19.18-8.58.4-13.14.66-.88.05-1.77.1-2.65.14,0,.01-.02.01-.03.01-8.46.45-16.92.81-25.4,1.09-.84.03-1.69.06-2.54.08-4.13.14-8.26.24-12.4.34h-.15c-36.63.85-73.32.4-109.96-.03Z"/>
  <path class="cls-2" d="M319.27,1038.29c-36.63.43-73.33.88-109.96.03h-.15c-4.14-.1-8.27-.21-12.4-.34-.85-.02-1.7-.05-2.54-.08-8.48-.27-16.94-.64-25.4-1.09,0,0-.02,0-.03-.01-.88-.03-1.77-.09-2.65-.14-4.57-.26-8.95-.48-13.14-.66h-.06c-12.86-.56-24.03-.77-33.7-1.05h0c-11.11-.33-20.28-.76-27.85-1.92h0c-9.66-1.48-16.73-4.15-21.93-9.31h0c-.44-.45-.87-.9-1.29-1.38-4.67-5.34-7.71-13.07-9.72-24.31-.78-4.32-1.4-9.16-1.92-14.6v-.05c-.61-6.38-1.04-13.58-1.39-21.68-.43-10.07-.7-21.54-.93-34.63,0-.03,0-.08,0-.13-.11-6.64-.22-13.68-.33-21.17-.25-4.27-.46-8.55-.65-12.84-.62-13.24-1.03-26.53-1.4-39.82v-.09c-.34-12.48-.62-24.95-.94-37.37-.24-9.31-.51-18.59-.85-27.83-.36-20.86,1.08-43.09.39-64.49v-.06c-.09-2.78-.22-5.54-.39-8.28,0-.25-.03-.5-.05-.74-.26-4.14-.64-8.24-1.14-12.28-.09-1.34-.17-2.69-.25-4.04-.79-13.05-1.3-26.67-1.61-40.62,0-.03,0-.08,0-.11-.73-31.97-.41-67.8-.08-100.74-.33-32.94-.64-68.77.08-100.74,0-.03,0-.08,0-.11.31-13.95.82-27.56,1.61-40.62.08-1.35.16-2.7.25-4.04.51-4.04.88-8.13,1.14-12.28.02-.24.04-.49.05-.74.17-2.75.3-5.5.39-8.28v-.06c.69-21.41-.75-43.64-.39-64.49.34-9.23.62-18.51.85-27.83.33-12.41.61-24.88.94-37.37v-.09c.36-13.28.78-26.58,1.4-39.82.19-4.29.41-8.57.65-12.84.11-7.48.22-14.53.33-21.17,0-.05,0-.09,0-.13.24-13.09.51-24.56.93-34.63.34-8.1.78-15.3,1.39-21.68v-.05c.52-5.43,1.13-10.27,1.92-14.6,2.02-11.25,5.05-18.97,9.72-24.31.42-.48.84-.94,1.29-1.37h0c5.2-5.17,12.27-7.85,21.93-9.32h0c7.57-1.17,16.74-1.59,27.85-1.92h0c9.68-.29,20.84-.49,33.7-1.05h.06c4.19-.18,8.58-.4,13.14-.66.88-.05,1.77-.1,2.65-.14,0-.01.02-.01.03-.01,8.46-.45,16.92-.81,25.4-1.09.84-.03,1.69-.06,2.54-.08,4.13-.14,8.26-.24,12.4-.34h.15c36.63-.85,73.32-.4,109.96.03,36.63-.43,73.33-.88,109.96-.03h.15c4.14.1,8.27.21,12.4.34.85.02,1.7.05,2.54.08,8.48.27,16.94.64,25.4,1.09,0,0,.02,0,.03.01.88.03,1.77.09,2.65.14,4.57.26,8.95.48,13.14.66h.06c12.86.56,24.03.77,33.7,1.05h0c11.11.33,20.28.76,27.85,1.92h0c9.66,1.48,16.73,4.15,21.93,9.31h0c.44.45.87.9,1.29,1.38,4.67,5.34,7.71,13.07,9.72,24.31.78,4.32,1.4,9.16,1.92,14.6v.05c.61,6.38,1.04,13.58,1.39,21.68.43,10.07.7,21.54.93,34.63,0,.03,0,.08,0,.13.11,6.64.22,13.68.33,21.17.25,4.27.46,8.55.65,12.84.62,13.24,1.03,26.53,1.4,39.82v.09c.34,12.48.62,24.95.94,37.37.24,9.31.51,18.59.85,27.83.36,20.86-1.08,43.09-.39,64.49v.06c.09,2.78.22,5.54.39,8.28,0,.25.03.5.05.74.26,4.14.64,8.24,1.14,12.28.09,1.34.17,2.69.25,4.04.79,13.05,1.3,26.67,1.61,40.62,0,.03,0,.08,0,.11.73,31.97.41,67.8.08,100.74.33,32.94.64,68.77-.08,100.74,0,.03,0,.08,0,.11-.31,13.95-.82,27.56-1.61,40.62-.08,1.35-.16,2.7-.25,4.04-.51,4.04-.88,8.13-1.14,12.28-.02.24-.04.49-.05.74-.17,2.75-.3,5.5-.39,8.28v.06c-.69,21.41.75,43.64.39,64.49-.34,9.23-.62,18.51-.85,27.83-.33,12.41-.61,24.88-.94,37.37v.09c-.36,13.28-.78,26.58-1.4,39.82-.19,4.29-.41,8.57-.65,12.84-.11,7.48-.22,14.53-.33,21.17,0,.05,0,.09,0,.13-.24,13.09-.51,24.56-.93,34.63-.34,8.1-.78,15.3-1.39,21.68v.05c-.52,5.43-1.13,10.27-1.92,14.6-2.02,11.25-5.05,18.97-9.72,24.31-.42.48-.84.94-1.29,1.37h0c-5.2,5.17-12.27,7.85-21.93,9.32h0c-7.57,1.17-16.74,1.59-27.85,1.92h0c-9.68.29-20.84.49-33.7,1.05h-.06c-4.19.18-8.58.4-13.14.66-.88.05-1.77.1-2.65.14,0,.01-.02.01-.03.01-8.46.45-16.92.81-25.4,1.09-.84.03-1.69.06-2.54.08-4.13.14-8.26.24-12.4.34h-.15c-36.63.85-73.32.4-109.96-.03Z"/>
  <path class="cls-2" d="M278.93,1038.71c13.45-.1,26.9-.26,40.34-.42h.3c16.26.2,32.53.39,48.81.47,8.94.04,17.87.06,26.81.01,11.36-.05,22.7-.19,34.05-.45h.15c4.14-.1,8.27-.21,12.39-.35.86-.02,1.7-.04,2.54-.08,8.48-.27,16.94-.64,25.4-1.08.01,0,.02,0,.03-.01.88-.04,1.77-.09,2.65-.14,4.56-.26,8.95-.48,13.14-.66h.07c12.86-.56,24.02-.77,33.7-1.05h0c11.11-.33,20.28-.76,27.85-1.92h.01c9.65-1.48,16.72-4.16,21.93-9.32h0c.44-.44.87-.91,1.29-1.38,4.68-5.34,7.71-13.06,9.73-24.31.78-4.32,1.39-9.16,1.91-14.6v-.04c.61-6.38,1.05-13.58,1.39-21.68.43-10.07.7-21.55.94-34.63,0-.04,0-.08,0-.13.11-6.64.21-13.69.33-21.17.24-4.27.46-8.54.65-12.83.62-13.24,1.04-26.54,1.4-39.82v-.09c.34-12.48.62-24.95.95-37.37.23-9.32.5-18.6.85-27.82.36-20.86-1.08-43.09-.39-64.5v-.05c.09-2.78.21-5.54.39-8.29,0-.25.03-.5.05-.74.26-4.14.63-8.23,1.14-12.27.09-1.34.17-2.69.25-4.04.79-13.05,1.3-26.67,1.61-40.61,0-.04,0-.08,0-.12.72-31.97.41-67.8.08-100.74.33-32.94.64-68.77-.08-100.74,0-.04,0-.08,0-.12-.31-13.95-.82-27.56-1.61-40.61-.08-1.35-.16-2.7-.25-4.04-.51-4.04-.88-8.14-1.14-12.27-.02-.24-.04-.49-.05-.75-.17-2.74-.3-5.5-.39-8.28v-.06c-.69-21.41.75-43.64.39-64.49-.35-9.24-.62-18.51-.85-27.82-.33-12.41-.61-24.89-.95-37.37v-.1c-.36-13.28-.78-26.57-1.4-39.81-.19-4.29-.41-8.57-.65-12.84-.11-7.48-.22-14.53-.33-21.16,0-.04,0-.09,0-.13-.23-13.09-.51-24.56-.94-34.63-.34-8.1-.78-15.3-1.39-21.69v-.04c-.52-5.43-1.13-10.27-1.91-14.6-2.02-11.24-5.05-18.97-9.73-24.31-.42-.48-.84-.93-1.29-1.37h0c-5.2-5.17-12.27-7.85-21.93-9.32h-.01c-7.57-1.17-16.74-1.59-27.85-1.93h0c-9.68-.28-20.84-.49-33.7-1.05h-.07c-4.19-.18-8.57-.4-13.14-.66-.88-.04-1.77-.1-2.65-.13,0-.01-.01-.01-.03-.01-8.46-.45-16.92-.81-25.4-1.09-.84-.03-1.68-.05-2.54-.08-4.13-.13-8.26-.24-12.39-.34h-.15c-11.41-.26-22.83-.4-34.24-.46-8.94-.04-17.87-.03-26.81.02-16.21.08-32.41.27-48.61.46h-.3c-13.39-.15-26.78-.32-40.18-.41-13.59-.1-27.2-.14-40.78-.04-9.67.07-19.33.2-28.99.42h-.15c-4.14.1-8.27.21-12.4.34-.85.03-1.7.05-2.54.08-8.48.28-16.94.64-25.4,1.09,0,0-.02,0-.03.01-.88.03-1.77.09-2.65.13-4.56.26-8.95.49-13.15.66h-.07c-12.86.57-24.02.77-33.7,1.05h-.01c-11.11.34-20.28.76-27.85,1.93h0c-9.66,1.47-16.73,4.15-21.93,9.31h0c-.41.42-.81.85-1.2,1.29-.03.03-.06.07-.09.1-4.67,5.34-7.71,13.07-9.72,24.31-.78,4.33-1.4,9.17-1.92,14.6v.04c-.61,6.39-1.05,13.58-1.39,21.69-.43,10.07-.7,21.54-.94,34.63.01.04,0,.08,0,.13-.11,6.64-.21,13.68-.32,21.16-.25,4.27-.47,8.55-.66,12.84-.62,13.24-1.03,26.53-1.39,39.81v.1c-.34,12.48-.62,24.95-.95,37.37-.24,9.31-.51,18.59-.86,27.82-.36,20.85,1.09,43.09.4,64.49v.06c-.09,2.78-.22,5.53-.4,8.28,0,.26-.03.51-.04.75-.27,4.14-.64,8.23-1.15,12.27-.09,1.34-.17,2.69-.25,4.04-.79,13.05-1.3,26.67-1.61,40.61,0,.04,0,.08,0,.12-.72,31.97-.4,67.8-.08,100.74-.32,32.94-.64,68.78.08,100.74,0,.04,0,.08,0,.12.31,13.94.82,27.56,1.61,40.61.08,1.35.16,2.7.25,4.04.51,4.04.88,8.13,1.15,12.27.01.24.03.49.04.74.17,2.74.3,5.5.4,8.29v.05c.69,21.41-.76,43.64-.4,64.5.35,9.23.62,18.51.86,27.82.32,12.41.6,24.89.95,37.37v.09c.36,13.28.78,26.58,1.39,39.82.19,4.29.41,8.57.66,12.83.11,7.48.21,14.53.32,21.17,0,.04.01.09,0,.13.24,13.08.51,24.56.94,34.63.34,8.1.78,15.3,1.39,21.68v.04c.52,5.44,1.13,10.28,1.92,14.6,2.01,11.25,5.05,18.97,9.72,24.31.03.03.05.07.09.1.39.45.78.88,1.2,1.28h0c5.2,5.17,12.27,7.84,21.93,9.32h0c7.57,1.16,16.74,1.59,27.85,1.92h.01c9.67.29,20.84.49,33.7,1.05h.07c4.2.18,8.58.4,13.15.66.88.05,1.77.1,2.65.14,0,.01.02.01.03.01,8.46.44,16.92.81,25.4,1.08.84.04,1.69.06,2.54.08,4.13.14,8.26.24,12.4.35h.15c9.61.22,19.21.35,28.82.42,13.59.1,27.19.07,40.79-.04ZM278.93,1038.71c13.45-.1,26.9-.26,40.34-.42h.3c16.26.2,32.53.39,48.81.47,8.94.04,17.87.06,26.81.01,11.36-.05,22.7-.19,34.05-.45h.15c4.14-.1,8.27-.21,12.39-.35.86-.02,1.7-.04,2.54-.08,8.48-.27,16.94-.64,25.4-1.08.01,0,.02,0,.03-.01.88-.04,1.77-.09,2.65-.14,4.56-.26,8.95-.48,13.14-.66h.07c12.86-.56,24.02-.77,33.7-1.05h0c11.11-.33,20.28-.76,27.85-1.92h.01c9.65-1.48,16.72-4.16,21.93-9.32h0c.44-.44.87-.91,1.29-1.38,4.68-5.34,7.71-13.06,9.73-24.31.78-4.32,1.39-9.16,1.91-14.6v-.04c.61-6.38,1.05-13.58,1.39-21.68.43-10.07.7-21.55.94-34.63,0-.04,0-.08,0-.13.11-6.64.21-13.69.33-21.17.24-4.27.46-8.54.65-12.83.62-13.24,1.04-26.54,1.4-39.82v-.09c.34-12.48.62-24.95.95-37.37.23-9.32.5-18.6.85-27.82.36-20.86-1.08-43.09-.39-64.5v-.05c.09-2.78.21-5.54.39-8.29,0-.25.03-.5.05-.74.26-4.14.63-8.23,1.14-12.27.09-1.34.17-2.69.25-4.04.79-13.05,1.3-26.67,1.61-40.61,0-.04,0-.08,0-.12.72-31.97.41-67.8.08-100.74.33-32.94.64-68.77-.08-100.74,0-.04,0-.08,0-.12-.31-13.95-.82-27.56-1.61-40.61-.08-1.35-.16-2.7-.25-4.04-.51-4.04-.88-8.14-1.14-12.27-.02-.24-.04-.49-.05-.75-.17-2.74-.3-5.5-.39-8.28v-.06c-.69-21.41.75-43.64.39-64.49-.35-9.24-.62-18.51-.85-27.82-.33-12.41-.61-24.89-.95-37.37v-.1c-.36-13.28-.78-26.57-1.4-39.81-.19-4.29-.41-8.57-.65-12.84-.11-7.48-.22-14.53-.33-21.16,0-.04,0-.09,0-.13-.23-13.09-.51-24.56-.94-34.63-.34-8.1-.78-15.3-1.39-21.69v-.04c-.52-5.43-1.13-10.27-1.91-14.6-2.02-11.24-5.05-18.97-9.73-24.31-.42-.48-.84-.93-1.29-1.37h0c-5.2-5.17-12.27-7.85-21.93-9.32h-.01c-7.57-1.17-16.74-1.59-27.85-1.93h0c-9.68-.28-20.84-.49-33.7-1.05h-.07c-4.19-.18-8.57-.4-13.14-.66-.88-.04-1.77-.1-2.65-.13,0-.01-.01-.01-.03-.01-8.46-.45-16.92-.81-25.4-1.09-.84-.03-1.68-.05-2.54-.08-4.13-.13-8.26-.24-12.39-.34h-.15c-11.41-.26-22.83-.4-34.24-.46-8.94-.04-17.87-.03-26.81.02-16.21.08-32.41.27-48.61.46h-.3c-13.39-.15-26.78-.32-40.18-.41-13.59-.1-27.2-.14-40.78-.04-9.67.07-19.33.2-28.99.42h-.15c-4.14.1-8.27.21-12.4.34-.85.03-1.7.05-2.54.08-8.48.28-16.94.64-25.4,1.09,0,0-.02,0-.03.01-.88.03-1.77.09-2.65.13-4.56.26-8.95.49-13.15.66h-.07c-12.86.57-24.02.77-33.7,1.05h-.01c-11.11.34-20.28.76-27.85,1.93h0c-9.66,1.47-16.73,4.15-21.93,9.31h0c-.41.42-.81.85-1.2,1.29-.03.03-.06.07-.09.1-4.67,5.34-7.71,13.07-9.72,24.31-.78,4.33-1.4,9.17-1.92,14.6v.04c-.61,6.39-1.05,13.58-1.39,21.69-.43,10.07-.7,21.54-.94,34.63.01.04,0,.08,0,.13-.11,6.64-.21,13.68-.32,21.16-.25,4.27-.47,8.55-.66,12.84-.62,13.24-1.03,26.53-1.39,39.81v.1c-.34,12.48-.62,24.95-.95,37.37-.24,9.31-.51,18.59-.86,27.82-.36,20.85,1.09,43.09.4,64.49v.06c-.09,2.78-.22,5.53-.4,8.28,0,.26-.03.51-.04.75-.27,4.14-.64,8.23-1.15,12.27-.09,1.34-.17,2.69-.25,4.04-.79,13.05-1.3,26.67-1.61,40.61,0,.04,0,.08,0,.12-.72,31.97-.4,67.8-.08,100.74-.32,32.94-.64,68.78.08,100.74,0,.04,0,.08,0,.12.31,13.94.82,27.56,1.61,40.61.08,1.35.16,2.7.25,4.04.51,4.04.88,8.13,1.15,12.27.01.24.03.49.04.74.17,2.74.3,5.5.4,8.29v.05c.69,21.41-.76,43.64-.4,64.5.35,9.23.62,18.51.86,27.82.32,12.41.6,24.89.95,37.37v.09c.36,13.28.78,26.58,1.39,39.82.19,4.29.41,8.57.66,12.83.11,7.48.21,14.53.32,21.17,0,.04.01.09,0,.13.24,13.08.51,24.56.94,34.63.34,8.1.78,15.3,1.39,21.68v.04c.52,5.44,1.13,10.28,1.92,14.6,2.01,11.25,5.05,18.97,9.72,24.31.03.03.05.07.09.1.39.45.78.88,1.2,1.28h0c5.2,5.17,12.27,7.84,21.93,9.32h0c7.57,1.16,16.74,1.59,27.85,1.92h.01c9.67.29,20.84.49,33.7,1.05h.07c4.2.18,8.58.4,13.15.66.88.05,1.77.1,2.65.14,0,.01.02.01.03.01,8.46.44,16.92.81,25.4,1.08.84.04,1.69.06,2.54.08,4.13.14,8.26.24,12.4.35h.15c9.61.22,19.21.35,28.82.42,13.59.1,27.19.07,40.79-.04ZM278.93,1038.71c13.45-.1,26.9-.26,40.34-.42h.3c16.26.2,32.53.39,48.81.47,8.94.04,17.87.06,26.81.01,11.36-.05,22.7-.19,34.05-.45h.15c4.14-.1,8.27-.21,12.39-.35.86-.02,1.7-.04,2.54-.08,8.48-.27,16.94-.64,25.4-1.08.01,0,.02,0,.03-.01.88-.04,1.77-.09,2.65-.14,4.56-.26,8.95-.48,13.14-.66h.07c12.86-.56,24.02-.77,33.7-1.05h0c11.11-.33,20.28-.76,27.85-1.92h.01c9.65-1.48,16.72-4.16,21.93-9.32h0c.44-.44.87-.91,1.29-1.38,4.68-5.34,7.71-13.06,9.73-24.31.78-4.32,1.39-9.16,1.91-14.6v-.04c.61-6.38,1.05-13.58,1.39-21.68.43-10.07.7-21.55.94-34.63,0-.04,0-.08,0-.13.11-6.64.21-13.69.33-21.17.24-4.27.46-8.54.65-12.83.62-13.24,1.04-26.54,1.4-39.82v-.09c.34-12.48.62-24.95.95-37.37.23-9.32.5-18.6.85-27.82.36-20.86-1.08-43.09-.39-64.5v-.05c.09-2.78.21-5.54.39-8.29,0-.25.03-.5.05-.74.26-4.14.63-8.23,1.14-12.27.09-1.34.17-2.69.25-4.04.79-13.05,1.3-26.67,1.61-40.61,0-.04,0-.08,0-.12.72-31.97.41-67.8.08-100.74.33-32.94.64-68.77-.08-100.74,0-.04,0-.08,0-.12-.31-13.95-.82-27.56-1.61-40.61-.08-1.35-.16-2.7-.25-4.04-.51-4.04-.88-8.14-1.14-12.27-.02-.24-.04-.49-.05-.75-.17-2.74-.3-5.5-.39-8.28v-.06c-.69-21.41.75-43.64.39-64.49-.35-9.24-.62-18.51-.85-27.82-.33-12.41-.61-24.89-.95-37.37v-.1c-.36-13.28-.78-26.57-1.4-39.81-.19-4.29-.41-8.57-.65-12.84-.11-7.48-.22-14.53-.33-21.16,0-.04,0-.09,0-.13-.23-13.09-.51-24.56-.94-34.63-.34-8.1-.78-15.3-1.39-21.69v-.04c-.52-5.43-1.13-10.27-1.91-14.6-2.02-11.24-5.05-18.97-9.73-24.31-.42-.48-.84-.93-1.29-1.37h0c-5.2-5.17-12.27-7.85-21.93-9.32h-.01c-7.57-1.17-16.74-1.59-27.85-1.93h0c-9.68-.28-20.84-.49-33.7-1.05h-.07c-4.19-.18-8.57-.4-13.14-.66-.88-.04-1.77-.1-2.65-.13,0-.01-.01-.01-.03-.01-8.46-.45-16.92-.81-25.4-1.09-.84-.03-1.68-.05-2.54-.08-4.13-.13-8.26-.24-12.39-.34h-.15c-11.41-.26-22.83-.4-34.24-.46-8.94-.04-17.87-.03-26.81.02-16.21.08-32.41.27-48.61.46h-.3c-13.39-.15-26.78-.32-40.18-.41-13.59-.1-27.2-.14-40.78-.04-9.67.07-19.33.2-28.99.42h-.15c-4.14.1-8.27.21-12.4.34-.85.03-1.7.05-2.54.08-8.48.28-16.94.64-25.4,1.09,0,0-.02,0-.03.01-.88.03-1.77.09-2.65.13-4.56.26-8.95.49-13.15.66h-.07c-12.86.57-24.02.77-33.7,1.05h-.01c-11.11.34-20.28.76-27.85,1.93h0c-9.66,1.47-16.73,4.15-21.93,9.31h0c-.41.42-.81.85-1.2,1.29-.03.03-.06.07-.09.1-4.67,5.34-7.71,13.07-9.72,24.31-.78,4.33-1.4,9.17-1.92,14.6v.04c-.61,6.39-1.05,13.58-1.39,21.69-.43,10.07-.7,21.54-.94,34.63.01.04,0,.08,0,.13-.11,6.64-.21,13.68-.32,21.16-.25,4.27-.47,8.55-.66,12.84-.62,13.24-1.03,26.53-1.39,39.81v.1c-.34,12.48-.62,24.95-.95,37.37-.24,9.31-.51,18.59-.86,27.82-.36,20.85,1.09,43.09.4,64.49v.06c-.09,2.78-.22,5.53-.4,8.28,0,.26-.03.51-.04.75-.27,4.14-.64,8.23-1.15,12.27-.09,1.34-.17,2.69-.25,4.04-.79,13.05-1.3,26.67-1.61,40.61,0,.04,0,.08,0,.12-.72,31.97-.4,67.8-.08,100.74-.32,32.94-.64,68.78.08,100.74,0,.04,0,.08,0,.12.31,13.94.82,27.56,1.61,40.61.08,1.35.16,2.7.25,4.04.51,4.04.88,8.13,1.15,12.27.01.24.03.49.04.74.17,2.74.3,5.5.4,8.29v.05c.69,21.41-.76,43.64-.4,64.5.35,9.23.62,18.51.86,27.82.32,12.41.6,24.89.95,37.37v.09c.36,13.28.78,26.58,1.39,39.82.19,4.29.41,8.57.66,12.83.11,7.48.21,14.53.32,21.17,0,.04.01.09,0,.13.24,13.08.51,24.56.94,34.63.34,8.1.78,15.3,1.39,21.68v.04c.52,5.44,1.13,10.28,1.92,14.6,2.01,11.25,5.05,18.97,9.72,24.31.03.03.05.07.09.1.39.45.78.88,1.2,1.28h0c5.2,5.17,12.27,7.84,21.93,9.32h0c7.57,1.16,16.74,1.59,27.85,1.92h.01c9.67.29,20.84.49,33.7,1.05h.07c4.2.18,8.58.4,13.15.66.88.05,1.77.1,2.65.14,0,.01.02.01.03.01,8.46.44,16.92.81,25.4,1.08.84.04,1.69.06,2.54.08,4.13.14,8.26.24,12.4.35h.15c9.61.22,19.21.35,28.82.42,13.59.1,27.19.07,40.79-.04Z"/>
  <path class="cls-7" d="M635.52-5.39h-.27c5.3,0,9.71,4.61,10.74,10.73-1-6.12-5.31-10.73-10.47-10.73ZM645.03,1112.08c.33-.78.58-1.6.79-2.47-.19.89-.46,1.73-.79,2.53v-.07Z"/>
  <path class="cls-7" d="M628.84,27.83c-.04-.25-.09-.49-.15-.72-.07-.29-.15-.57-.23-.85-.08-.26-.16-.51-.26-.76-.01-.03-.02-.05-.03-.08-.1-.27-.2-.53-.33-.8-.07-.17-.14-.34-.23-.51-.07-.15-.14-.31-.22-.45-.1-.2-.2-.39-.32-.57-.14-.23-.29-.46-.43-.67-.15-.23-.32-.46-.48-.66h0c-.2-.26-.39-.48-.58-.7h0c-1.89-2.13-4.36-3.39-7.07-3.39h-.65c2.79,0,5.32,1.26,7.25,3.39.04.04.08.09.12.13.04.05.08.11.12.16.19.23.39.46.57.71,1.78,2.38,2.87,5.55,2.87,9.05v1051.87c0,2.83-.72,5.49-1.95,7.65-.15.28-.32.53-.49.79-.16.26-.35.51-.53.76-.08.1-.15.21-.23.3-1.97,2.44-4.72,3.93-7.73,3.93h.65c2.94,0,5.61-1.5,7.54-3.93.18-.25.37-.49.55-.74h0c.2-.31.39-.61.57-.93.16-.28.31-.56.46-.86.02-.06.05-.12.07-.17.15-.32.29-.64.42-.98.13-.35.26-.71.37-1.08.08-.27.15-.54.22-.83.04-.18.08-.36.11-.53.22-1.08.35-2.21.35-3.38V31.1c0-1.13-.11-2.22-.33-3.27Z"/>
  <path class="cls-1" d="M644.81,5.35c-.93-5.54-4.63-9.85-9.25-10.61,4.61.77,8.32,5.17,9.25,10.83.11.67.18,1.36.21,2.06-.01-.78-.08-1.53-.21-2.28ZM626.05,1092.47c-1.93,2.44-4.6,3.93-7.54,3.93H20.11c-.17,0-.37,0-.54,0,.18,0,.37.02.55.02h599.52c2.94,0,5.61-1.51,7.55-3.94l-.59-.74c-.18.26-.37.5-.55.74ZM19.61,17.67c-.16,0-.32.02-.47.04.24-.03.49-.04.74-.04-.09,0-.18,0-.27,0ZM618.51,17.66c2.71,0,5.18,1.26,7.07,3.38h0c.2.23.4.47.58.7l.56-.7c-1.89-2.11-4.37-3.39-7.08-3.39H20.12c-.08,0-.16.01-.24.01.08,0,.15,0,.23,0h598.4ZM-6.37,4.77c-.12.75-.19,1.51-.2,2.28.03-.7.09-1.4.2-2.07C-5.55.03-2.61-3.96,1.21-5.39-2.61-3.99-5.55-.08-6.37,4.77Z"/>
  <path class="cls-4" d="M628.69,27.11c-.07-.29-.15-.57-.23-.85-.08-.26-.16-.51-.26-.76-.01-.03-.02-.05-.03-.08-.1-.27-.2-.53-.33-.8-.07-.17-.14-.34-.23-.51-.07-.15-.14-.31-.22-.45-.1-.2-.2-.39-.32-.57-.14-.23-.29-.46-.43-.67-.15-.23-.32-.46-.48-.66h0s.56-.71.56-.71c-1.89-2.11-4.37-3.39-7.08-3.39H20.12c-.08,0-.16.01-.24.01-.09,0-.18,0-.27,0-.16,0-.32.02-.47.04-.35.04-.68.1-1.01.17-1.96.44-3.74,1.55-5.16,3.17-2.2,2.46-3.59,6.04-3.59,10.05v.73c0-.65.03-1.3.1-1.92.36-3.31,1.63-6.23,3.49-8.34.09-.1.17-.2.27-.3,1.75-1.87,3.96-3.03,6.38-3.14.17,0,.34-.02.5-.02h598.4c2.49,0,4.78,1.09,6.59,2.93.04.04.08.09.12.13.04.05.09.1.13.15.08.08.15.16.22.25.12.14.24.29.37.45.07.09.14.19.21.28,1.32,1.74,2.28,3.93,2.72,6.37.18,1.02.29,2.08.29,3.17v-.73c0-1.13-.11-2.22-.33-3.27-.04-.25-.09-.49-.15-.72ZM645.03,1112.15v-.07"/>
  <path class="cls-1" d="M9.37,31.1c0-4.01,1.39-7.59,3.59-10.05,1.43-1.61,3.2-2.73,5.16-3.17.33-.07.66-.13,1.01-.17.32-.04.65-.06.98-.06h599.52c2.71,0,5.19,1.28,7.08,3.39l-.56.7h0c.17.22.33.45.48.67.15.22.3.45.43.67.11.19.21.38.32.57.08.15.15.3.22.45.09.17.16.34.23.51.12.26.22.52.33.8.01.03.02.05.03.08.09.25.17.51.26.76.09.28.16.56.23.85.06.24.11.48.15.72.21,1.05.33,2.14.33,3.27v1051.87c0,1.17-.12,2.3-.35,3.38-.03.18-.07.36-.11.53-.07.29-.14.56-.22.83-.11.37-.23.73-.37,1.08-.12.34-.27.66-.42.98-.02.05-.05.11-.07.17-.14.3-.3.58-.46.86-.17.32-.37.62-.57.92h0s.59.75.59.75c-1.94,2.44-4.61,3.94-7.55,3.94H20.12c-.18,0-.37,0-.55-.02s-.37-.02-.54-.05c-2.54-.3-4.83-1.71-6.53-3.87-1.48-1.87-2.52-4.29-2.93-6.98-.12-.81-.19-1.66-.19-2.53V31.1ZM645.03,1112.08V8.33c0-.24,0-.48-.01-.7-.03-.7-.1-1.39-.21-2.06-.84-5.13-3.96-9.23-7.97-10.53-.28-.09-.56-.16-.85-.23-.14-.03-.29-.06-.43-.08-.48-.08-.97-.12-1.46-.12H1.21C-2.61-3.96-5.55.03-6.37,4.98c-.11.67-.17,1.37-.2,2.07-.01.23-.01.47-.01.7v1119.92c0,.94.07,1.87.21,2.76,1.03,6.25,5.43,10.95,10.72,10.95h632.9c3.82-1.45,6.75-5.42,7.55-10.37.15-.9.22-1.81.22-2.76v-16.11"/>
  <path class="cls-3" d="M626.72,21.04l-.56.7h0s-.21.28-.21.28l-.03.03-54.48,68.55c-.18-.21-.36-.42-.55-.61-.23-.26-.48-.51-.73-.76h0c-5.22-5.17-12.3-7.85-21.97-9.33h-.01c-7.58-1.17-16.76-1.58-27.89-1.92h-.01c-9.7-.29-20.88-.5-33.76-1.05h-.06c-4.2-.19-8.59-.41-13.17-.66-.89-.05-1.78-.11-2.66-.14,0,0-.01,0-.02,0-8.48-.45-16.95-.81-25.44-1.09-.85-.03-1.69-.06-2.55-.08-4.13-.14-8.27-.24-12.42-.35h-.15c-8.4-.19-16.8-.32-25.2-.39-.43,0-.85,0-1.28,0-.9,0-1.8-.02-2.68-.02-1,0-2-.02-2.99-.02-.65,0-1.3,0-1.94,0-.26,0-.5,0-.75,0-1.42,0-2.83-.02-4.24-.02h-.7c-4.93,0-9.86,0-14.79,0-2.36,0-4.72.02-7.07.03-2.7.02-5.4.04-8.09.06h-.67c-.51,0-1.02,0-1.53.02-.69,0-1.38,0-2.07,0-1.27,0-2.54.02-3.81.03-1.78.02-3.55.04-5.33.05-1,0-2.01.02-3.02.03-5.08.05-10.17.11-15.24.17-.61,0-1.22,0-1.84.02-2.31.03-4.61.06-6.92.09h-.31c-.1,0-.19,0-.3,0-2.33-.03-4.64-.05-6.97-.08-2.87-.04-5.73-.07-8.59-.1-1.51-.02-3.02-.03-4.52-.05-1.19,0-2.38-.03-3.56-.04-2.16-.02-4.32-.04-6.48-.06-.22,0-.46,0-.68,0-.49,0-.98,0-1.47,0-2.69-.03-5.38-.05-8.07-.06-2.52-.03-5.04-.04-7.56-.06h-.51c-2.52,0-5.05-.02-7.57-.03-2.43,0-4.85,0-7.28,0-4.06,0-8.12,0-12.19.03-1.83,0-3.66,0-5.5.03h-.63c-.81,0-1.61.02-2.42.03-.94,0-1.88,0-2.81.02-1.9.02-3.8.04-5.68.06-.32,0-.64,0-.96.02-1.57.02-3.15.04-4.73.07-.84,0-1.68.03-2.52.04-2.95.05-5.89.11-8.84.18h-.15c-4.14.11-8.29.21-12.42.35-.86.02-1.7.05-2.55.08-8.49.28-16.96.64-25.44,1.09,0,0-.01,0-.02,0-.89.03-1.78.09-2.65.14-3.55.2-6.98.38-10.3.52-.97.05-1.92.1-2.87.14h-.07c-1.61.07-3.19.13-4.75.19-9.59.37-18.2.56-25.9.77-1.06.03-2.09.06-3.11.09h-.01c-11.12.34-20.31.75-27.89,1.92h-.01c-9.68,1.48-16.76,4.16-21.97,9.32h0c-.44.45-.87.9-1.29,1.39l-.07-.1h-.01L13.23,21.28l-.19-.24c1.41-1.58,3.15-2.69,5.09-3.16.33-.07.66-.13,1.01-.17.15-.02.31-.03.47-.04.09,0,.18,0,.27,0,.08,0,.16-.01.24-.01h599.52c2.71,0,5.19,1.28,7.08,3.39Z"/>
  <path class="cls-5" d="M12.56,1092.47c-1.94-2.44-3.13-5.8-3.13-9.51V31.1c0-4,1.39-7.6,3.6-10.06l55.28,69.55c-4.68,5.34-7.72,13.07-9.74,24.31-.78,4.32-1.4,9.16-1.92,14.6v.05c-.61,6.38-1.05,13.58-1.39,21.68-.43,10.07-.7,21.54-.94,34.63,0,.03,0,.08,0,.13-.11,6.64-.22,13.68-.33,21.17-.25,4.27-.46,8.55-.65,12.84-.62,13.24-1.04,26.53-1.4,39.82v.09c-.34,12.48-.62,24.95-.95,37.37-.24,9.31-.51,18.59-.85,27.83-.36,20.86,1.08,43.09.39,64.49v.06c-.09,2.78-.22,5.54-.39,8.28,0,.25-.03.5-.05.74-.26,4.14-.64,8.24-1.15,12.28-.09,1.34-.17,2.69-.25,4.04-.79,13.05-1.3,26.67-1.61,40.62,0,.03,0,.08,0,.11-.73,31.97-.41,67.8-.08,100.74-.33,32.94-.65,68.77.08,100.74,0,.03,0,.08,0,.11.31,13.95.82,27.56,1.61,40.62.08,1.35.16,2.7.25,4.04.51,4.04.88,8.13,1.15,12.28.02.24.04.49.05.74.17,2.75.3,5.5.39,8.28v.06c.69,21.41-.75,43.64-.39,64.49.35,9.23.62,18.51.85,27.83.33,12.41.61,24.88.95,37.37v.09c.36,13.28.78,26.58,1.4,39.82.19,4.29.41,8.57.65,12.84.11,7.48.22,14.53.33,21.17,0,.05,0,.09,0,.13.24,13.09.51,24.56.94,34.63.35,8.1.78,15.3,1.39,21.68v.05c.52,5.43,1.14,10.27,1.92,14.6,2.02,11.25,5.06,18.97,9.74,24.31l-55.75,70.15Z"/>
  <path class="cls-5" d="M627.45,1092.47c1.94-2.44,3.13-5.8,3.13-9.51V31.1c0-4-1.39-7.6-3.6-10.06l-55.28,69.55c4.68,5.34,7.72,13.07,9.74,24.31.78,4.32,1.4,9.16,1.92,14.6v.05c.61,6.38,1.05,13.58,1.39,21.68.43,10.07.7,21.54.94,34.63,0,.03,0,.08,0,.13.11,6.64.22,13.68.33,21.17.25,4.27.46,8.55.65,12.84.62,13.24,1.04,26.53,1.4,39.82v.09c.34,12.48.62,24.95.95,37.37.24,9.31.51,18.59.85,27.83.36,20.86-1.08,43.09-.39,64.49v.06c.09,2.78.22,5.54.39,8.28,0,.25.03.5.05.74.26,4.14.64,8.24,1.15,12.28.09,1.34.17,2.69.25,4.04.79,13.05,1.3,26.67,1.61,40.62,0,.03,0,.08,0,.11.73,31.97.41,67.8.08,100.74.33,32.94.65,68.77-.08,100.74,0,.03,0,.08,0,.11-.31,13.95-.82,27.56-1.61,40.62-.08,1.35-.16,2.7-.25,4.04-.51,4.04-.88,8.13-1.15,12.28-.02.24-.04.49-.05.74-.17,2.75-.3,5.5-.39,8.28v.06c-.69,21.41.75,43.64.39,64.49-.35,9.23-.62,18.51-.85,27.83-.33,12.41-.61,24.88-.95,37.37v.09c-.36,13.28-.78,26.58-1.4,39.82-.19,4.29-.41,8.57-.65,12.84-.11,7.48-.22,14.53-.33,21.17,0,.05,0,.09,0,.13-.24,13.09-.51,24.56-.94,34.63-.35,8.1-.78,15.3-1.39,21.68v.05c-.52,5.43-1.14,10.27-1.92,14.6-2.02,11.25-5.06,18.97-9.74,24.31l55.75,70.15Z"/>
  <path class="cls-6" d="M627.19,1092.47c-1.94,2.44-4.61,3.94-7.55,3.94H20.12c-.18,0-.37,0-.55-.02s-.36-.03-.54-.05c-2.51-.32-4.78-1.74-6.47-3.87l55.67-70.05h.01s.07-.1.07-.1c.42.48.85.94,1.29,1.38h0c5.22,5.17,12.3,7.84,21.97,9.32h.01c7.58,1.17,16.77,1.59,27.89,1.92h.01c9.7.29,20.88.5,33.76,1.06h.07c4.19.18,8.58.4,13.17.66.88.04,1.77.1,2.65.14.01,0,.02,0,.02,0,8.48.45,16.95.81,25.44,1.08.71.03,1.44.05,2.16.08.12,0,.26,0,.39,0,4.13.13,8.28.24,12.42.34h.15c3.81.09,7.61.17,11.42.23.2,0,.41,0,.61,0,3.6.06,7.21.1,10.82.14,4.82.05,9.64.08,14.47.09,10.62.04,21.26,0,31.88-.08.05,0,.09,0,.14,0,2.68,0,5.37-.04,8.04-.06,10.82-.09,21.64-.23,32.45-.36h.31c2.68.03,5.37.07,8.05.1,2.68.03,5.37.06,8.05.09,2.89.03,5.77.06,8.65.1,2.49.02,4.97.04,7.46.07,1.36,0,2.71.02,4.08.03,1.09,0,2.19.02,3.3.03h.67c2.68.02,5.37.04,8.05.06,8.88.04,17.76.05,26.63,0h.92c1.66,0,3.32,0,4.97-.03,9.78-.06,19.54-.2,29.31-.43h.15c4.15-.1,8.29-.21,12.42-.34.86-.03,1.7-.05,2.55-.09,8.49-.27,16.96-.63,25.44-1.08.01,0,.02,0,.02,0,.89-.04,1.78-.1,2.66-.14,4.57-.27,8.96-.49,13.17-.66h.06c12.88-.56,24.07-.77,33.76-1.06h.01c11.13-.33,20.31-.75,27.89-1.92h.01c9.68-1.48,16.76-4.15,21.97-9.31h0c.26-.26.5-.51.73-.77.18-.2.37-.41.55-.61l54.91,69.08.26.31h0s.59.75.59.75Z"/>
</svg>