<?xml version="1.0" encoding="UTF-8"?>
<svg id="Layer_2" data-name="Layer 2" xmlns="http://www.w3.org/2000/svg" viewBox="0 0 32 32">
  <defs>
    <style>
      .cls-1 {
        fill: #e368a3;
      }

      .cls-2 {
        fill: #040404;
      }
    </style>
  </defs>
  <rect class="cls-2" x="9.46" y="1.39" width="1.4" height="1.39"/>
  <rect class="cls-2" x="19.28" y="11.13" width="1.4" height="1.39"/>
  <rect class="cls-2" x="16.47" y="8.35" width="1.4" height="1.39"/>
  <rect class="cls-2" x="17.87" y="9.74" width="1.4" height="1.39"/>
  <rect class="cls-2" x="15.07" y="6.96" width="1.4" height="1.39"/>
  <polygon class="cls-2" points="8.06 1.39 8.06 30.61 9.46 30.61 9.46 32 6.66 32 6.66 0 9.46 0 9.46 1.39 8.06 1.39"/>
  <rect class="cls-2" x="20.68" y="12.53" width="1.4" height="1.39"/>
  <rect class="cls-2" x="15.07" y="23.65" width="1.4" height="1.39"/>
  <rect class="cls-2" x="10.86" y="2.78" width="1.4" height="1.39"/>
  <rect class="cls-2" x="17.87" y="20.87" width="1.4" height="1.39"/>
  <rect class="cls-2" x="12.26" y="26.43" width="1.4" height="1.39"/>
  <rect class="cls-2" x="12.26" y="4.18" width="1.4" height="1.39"/>
  <rect class="cls-2" x="9.46" y="29.22" width="1.4" height="1.39"/>
  <rect class="cls-2" x="10.86" y="27.82" width="1.4" height="1.39"/>
  <rect class="cls-2" x="13.67" y="25.04" width="1.4" height="1.39"/>
  <rect class="cls-2" x="16.47" y="22.26" width="1.4" height="1.39"/>
  <rect class="cls-2" x="19.28" y="19.47" width="1.4" height="1.39"/>
  <rect class="cls-2" x="13.67" y="5.57" width="1.4" height="1.39"/>
  <rect class="cls-2" x="20.68" y="18.08" width="1.4" height="1.39"/>
  <rect class="cls-2" x="22.08" y="13.92" width="1.4" height="1.39"/>
  <rect class="cls-2" x="22.08" y="16.69" width="1.4" height="1.39"/>
  <polygon class="cls-1" points="23.48 15.31 23.48 16.69 22.08 16.69 22.08 18.08 20.68 18.08 20.68 19.47 19.28 19.47 19.28 20.87 17.87 20.87 17.87 22.26 16.47 22.26 16.47 23.65 15.07 23.65 15.07 25.04 13.67 25.04 13.67 26.43 12.26 26.43 12.26 27.82 10.86 27.82 10.86 29.22 9.46 29.22 9.46 30.61 8.06 30.61 8.06 1.39 9.46 1.39 9.46 2.78 10.86 2.78 10.86 4.18 12.26 4.18 12.26 5.57 13.67 5.57 13.67 6.96 15.07 6.96 15.07 8.35 16.47 8.35 16.47 9.74 17.87 9.74 17.87 11.13 19.28 11.13 19.28 12.53 20.68 12.53 20.68 13.92 22.08 13.92 22.08 15.31 23.48 15.31"/>
  <rect class="cls-2" x="23.48" y="15.31" width="1.4" height="1.38"/>
</svg>