<?xml version="1.0" encoding="UTF-8"?>
<svg id="Layer_1" data-name="Layer 1" xmlns="http://www.w3.org/2000/svg" viewBox="0 0 1920 1080">
  <defs>
    <style>
      .cls-1, .cls-2, .cls-3, .cls-4, .cls-5 {
        stroke: #0a0a07;
        stroke-miterlimit: 10;
      }

      .cls-1, .cls-3, .cls-4, .cls-5 {
        stroke-width: 3px;
      }

      .cls-1, .cls-6 {
        fill: #2f2f27;
      }

      .cls-2 {
        fill: none;
        stroke-width: 6px;
      }

      .cls-3 {
        fill: #11110c;
      }

      .cls-4 {
        fill: #24241d;
      }

      .cls-5 {
        fill: #21211a;
      }

      .cls-7 {
        fill: #949695;
      }
    </style>
  </defs>
  <g>
    <path class="cls-2" d="M1790.06,527.88c.75,59.19,1.52,118.49.06,177.66v.25c-.18,6.69-.36,13.36-.59,20.03-.04,1.38-.08,2.74-.14,4.11-.47,13.7-1.11,27.37-1.87,41.04,0,.01,0,.03-.02.04-.06,1.42-.16,2.86-.24,4.28-.45,7.38-.83,14.46-1.14,21.24v.1c-.97,20.78-1.32,38.82-1.82,54.45h0c-.57,17.97-1.3,32.78-3.32,45.01h0c-2.55,15.62-7.16,27.04-16.06,35.45h-.02c-.75.72-1.54,1.41-2.37,2.08-9.22,7.55-22.54,12.45-41.93,15.71-7.46,1.26-15.81,2.26-25.18,3.09h-.08c-11.01.98-23.42,1.69-37.4,2.24-17.37.69-37.16,1.13-59.73,1.51-.06-.01-.14,0-.22,0-11.45.18-23.6.35-36.51.53-7.36.4-14.74.75-22.14,1.06-22.83,1-45.76,1.67-68.67,2.26h-.16c-21.53.54-43.04,1-64.45,1.53-16.06.38-32.07.82-47.99,1.38-35.97.59-74.32-1.75-111.24-.63h-.1c-4.8.15-9.55.35-14.29.63-.43.01-.87.04-1.28.07-7.14.43-14.21,1.03-21.17,1.85-2.31.15-4.64.28-6.97.41-22.52,1.28-46,2.1-70.05,2.6-.06.01-.14.01-.2,0-55.14,1.17-116.94.66-173.76.13-56.81.53-118.62,1.04-173.76-.13-.06.01-.14.01-.2,0-24.06-.5-47.54-1.32-70.05-2.6-2.33-.13-4.66-.26-6.97-.41-6.97-.82-14.03-1.42-21.17-1.85-.41-.03-.85-.06-1.28-.07-4.74-.28-9.49-.48-14.29-.63h-.1c-36.92-1.11-75.26,1.22-111.24.63-15.93-.56-31.93-1-47.99-1.38-21.41-.53-42.92-.98-64.45-1.53h-.16c-22.91-.59-45.84-1.26-68.67-2.26-7.4-.31-14.78-.66-22.14-1.06-12.91-.18-25.06-.35-36.51-.53-.08,0-.16-.01-.22,0-22.58-.38-42.37-.82-59.73-1.51-13.97-.56-26.38-1.26-37.4-2.24h-.08c-9.37-.84-17.72-1.83-25.18-3.09-19.4-3.26-32.72-8.15-41.93-15.71-.83-.67-1.62-1.36-2.37-2.08h-.02c-8.9-8.4-13.52-19.83-16.06-35.43h0c-2.01-12.25-2.74-27.06-3.32-45.01h0c-.49-15.65-.85-33.69-1.82-54.47v-.1c-.32-6.78-.69-13.86-1.14-21.24-.08-1.42-.18-2.86-.24-4.28-.02-.01-.02-.03-.02-.04-.77-13.67-1.4-27.34-1.87-41.04-.06-1.36-.1-2.73-.14-4.11-.24-6.67-.41-13.35-.59-20.03v-.25c-1.46-59.18-.69-118.47.06-177.66-.75-59.19-1.52-118.49-.06-177.66v-.25c.18-6.69.36-13.36.59-20.03.04-1.38.08-2.74.14-4.11.47-13.7,1.11-27.37,1.87-41.04,0-.01,0-.03.02-.04.06-1.42.16-2.86.24-4.28.45-7.38.83-14.46,1.14-21.24v-.1c.97-20.78,1.32-38.82,1.82-54.45h0c.57-17.97,1.3-32.78,3.32-45.01h0c2.55-15.62,7.16-27.04,16.06-35.45h.02c.75-.72,1.54-1.41,2.37-2.08,9.22-7.55,22.54-12.45,41.93-15.71,7.46-1.26,15.81-2.26,25.18-3.09h.08c11.01-.98,23.42-1.69,37.4-2.24,17.37-.69,37.16-1.13,59.73-1.51.06.01.14,0,.22,0,11.45-.18,23.6-.35,36.51-.53,7.36-.4,14.74-.75,22.14-1.06,22.83-1,45.76-1.67,68.67-2.26h.16c21.53-.54,43.04-1,64.45-1.53,16.06-.38,32.07-.82,47.99-1.38,35.97-.59,74.32,1.75,111.24.63h.1c4.8-.15,9.55-.35,14.29-.63.43-.01.87-.04,1.28-.07,7.14-.43,14.21-1.03,21.17-1.85,2.31-.15,4.64-.28,6.97-.41,22.52-1.28,46-2.1,70.05-2.6.06-.01.14-.01.2,0,55.14-1.17,116.94-.66,173.76-.13,56.81-.53,118.62-1.04,173.76.13.06-.01.14-.01.2,0,24.06.5,47.54,1.32,70.05,2.6,2.33.13,4.66.26,6.97.41,6.97.82,14.03,1.42,21.17,1.85.41.03.85.06,1.28.07,4.74.28,9.49.48,14.29.63h.1c36.92,1.11,75.26-1.22,111.24-.63,15.93.56,31.93,1,47.99,1.38,21.41.53,42.92.98,64.45,1.53h.16c22.91.59,45.84,1.26,68.67,2.26,7.4.31,14.78.66,22.14,1.06,12.91.18,25.06.35,36.51.53.08,0,.16.01.22,0,22.58.38,42.37.82,59.73,1.51,13.97.56,26.38,1.26,37.4,2.24h.08c9.37.84,17.72,1.83,25.18,3.09,19.4,3.26,32.72,8.15,41.93,15.71.83.67,1.62,1.36,2.37,2.08h.02c8.9,8.4,13.52,19.83,16.06,35.43h0c2.01,12.25,2.74,27.06,3.32,45.01h0c.49,15.65.85,33.69,1.82,54.47v.1c.32,6.78.69,13.86,1.14,21.24.08,1.42.18,2.86.24,4.28.02.01.02.03.02.04.77,13.67,1.4,27.34,1.87,41.04.06,1.36.1,2.73.14,4.11.24,6.67.41,13.35.59,20.03v.25c1.46,59.18.69,118.47-.06,177.66Z"/>
    <path class="cls-2" d="M1790.06,527.88c.75,59.19,1.52,118.49.06,177.66v.25c-.18,6.69-.36,13.36-.59,20.03-.04,1.38-.08,2.74-.14,4.11-.47,13.7-1.11,27.37-1.87,41.04,0,.01,0,.03-.02.04-.06,1.42-.16,2.86-.24,4.28-.45,7.38-.83,14.46-1.14,21.24v.1c-.97,20.78-1.32,38.82-1.82,54.45h0c-.57,17.97-1.3,32.78-3.32,45.01h0c-2.55,15.62-7.16,27.04-16.06,35.45h-.02c-.75.72-1.54,1.41-2.37,2.08-9.22,7.55-22.54,12.45-41.93,15.71-7.46,1.26-15.81,2.26-25.18,3.09h-.08c-11.01.98-23.42,1.69-37.4,2.24-17.37.69-37.16,1.13-59.73,1.51-.06-.01-.14,0-.22,0-11.45.18-23.6.35-36.51.53-7.36.4-14.74.75-22.14,1.06-22.83,1-45.76,1.67-68.67,2.26h-.16c-21.53.54-43.04,1-64.45,1.53-16.06.38-32.07.82-47.99,1.38-35.97.59-74.32-1.75-111.24-.63h-.1c-4.8.15-9.55.35-14.29.63-.43.01-.87.04-1.28.07-7.14.43-14.21,1.03-21.17,1.85-2.31.15-4.64.28-6.97.41-22.52,1.28-46,2.1-70.05,2.6-.06.01-.14.01-.2,0-55.14,1.17-116.94.66-173.76.13-56.81.53-118.62,1.04-173.76-.13-.06.01-.14.01-.2,0-24.06-.5-47.54-1.32-70.05-2.6-2.33-.13-4.66-.26-6.97-.41-6.97-.82-14.03-1.42-21.17-1.85-.41-.03-.85-.06-1.28-.07-4.74-.28-9.49-.48-14.29-.63h-.1c-36.92-1.11-75.26,1.22-111.24.63-15.93-.56-31.93-1-47.99-1.38-21.41-.53-42.92-.98-64.45-1.53h-.16c-22.91-.59-45.84-1.26-68.67-2.26-7.4-.31-14.78-.66-22.14-1.06-12.91-.18-25.06-.35-36.51-.53-.08,0-.16-.01-.22,0-22.58-.38-42.37-.82-59.73-1.51-13.97-.56-26.38-1.26-37.4-2.24h-.08c-9.37-.84-17.72-1.83-25.18-3.09-19.4-3.26-32.72-8.15-41.93-15.71-.83-.67-1.62-1.36-2.37-2.08h-.02c-8.9-8.4-13.52-19.83-16.06-35.43h0c-2.01-12.25-2.74-27.06-3.32-45.01h0c-.49-15.65-.85-33.69-1.82-54.47v-.1c-.32-6.78-.69-13.86-1.14-21.24-.08-1.42-.18-2.86-.24-4.28-.02-.01-.02-.03-.02-.04-.77-13.67-1.4-27.34-1.87-41.04-.06-1.36-.1-2.73-.14-4.11-.24-6.67-.41-13.35-.59-20.03v-.25c-1.46-59.18-.69-118.47.06-177.66-.75-59.19-1.52-118.49-.06-177.66v-.25c.18-6.69.36-13.36.59-20.03.04-1.38.08-2.74.14-4.11.47-13.7,1.11-27.37,1.87-41.04,0-.01,0-.03.02-.04.06-1.42.16-2.86.24-4.28.45-7.38.83-14.46,1.14-21.24v-.1c.97-20.78,1.32-38.82,1.82-54.45h0c.57-17.97,1.3-32.78,3.32-45.01h0c2.55-15.62,7.16-27.04,16.06-35.45h.02c.75-.72,1.54-1.41,2.37-2.08,9.22-7.55,22.54-12.45,41.93-15.71,7.46-1.26,15.81-2.26,25.18-3.09h.08c11.01-.98,23.42-1.69,37.4-2.24,17.37-.69,37.16-1.13,59.73-1.51.06.01.14,0,.22,0,11.45-.18,23.6-.35,36.51-.53,7.36-.4,14.74-.75,22.14-1.06,22.83-1,45.76-1.67,68.67-2.26h.16c21.53-.54,43.04-1,64.45-1.53,16.06-.38,32.07-.82,47.99-1.38,35.97-.59,74.32,1.75,111.24.63h.1c4.8-.15,9.55-.35,14.29-.63.43-.01.87-.04,1.28-.07,7.14-.43,14.21-1.03,21.17-1.85,2.31-.15,4.64-.28,6.97-.41,22.52-1.28,46-2.1,70.05-2.6.06-.01.14-.01.2,0,55.14-1.17,116.94-.66,173.76-.13,56.81-.53,118.62-1.04,173.76.13.06-.01.14-.01.2,0,24.06.5,47.54,1.32,70.05,2.6,2.33.13,4.66.26,6.97.41,6.97.82,14.03,1.42,21.17,1.85.41.03.85.06,1.28.07,4.74.28,9.49.48,14.29.63h.1c36.92,1.11,75.26-1.22,111.24-.63,15.93.56,31.93,1,47.99,1.38,21.41.53,42.92.98,64.45,1.53h.16c22.91.59,45.84,1.26,68.67,2.26,7.4.31,14.78.66,22.14,1.06,12.91.18,25.06.35,36.51.53.08,0,.16.01.22,0,22.58.38,42.37.82,59.73,1.51,13.97.56,26.38,1.26,37.4,2.24h.08c9.37.84,17.72,1.83,25.18,3.09,19.4,3.26,32.72,8.15,41.93,15.71.83.67,1.62,1.36,2.37,2.08h.02c8.9,8.4,13.52,19.83,16.06,35.43h0c2.01,12.25,2.74,27.06,3.32,45.01h0c.49,15.65.85,33.69,1.82,54.47v.1c.32,6.78.69,13.86,1.14,21.24.08,1.42.18,2.86.24,4.28.02.01.02.03.02.04.77,13.67,1.4,27.34,1.87,41.04.06,1.36.1,2.73.14,4.11.24,6.67.41,13.35.59,20.03v.25c1.46,59.18.69,118.47-.06,177.66Z"/>
    <path class="cls-2" d="M1790.12,350.22v-.25c-.18-6.69-.36-13.36-.59-20.03-.04-1.38-.08-2.74-.14-4.11-.47-13.7-1.11-27.37-1.87-41.04,0-.01,0-.03-.02-.04-.06-1.42-.16-2.86-.24-4.28-.45-7.38-.83-14.46-1.14-21.24v-.1c-.97-20.78-1.32-38.82-1.82-54.45h0c-.57-17.97-1.3-32.78-3.32-45.01h0c-2.55-15.62-7.16-27.04-16.06-35.45h-.02c-.75-.72-1.54-1.41-2.37-2.08-9.22-7.55-22.54-12.45-41.93-15.71-7.46-1.26-15.81-2.26-25.18-3.09h-.08c-11.01-.98-23.42-1.69-37.4-2.24-17.37-.69-37.16-1.13-59.73-1.51-.06.01-.14,0-.22,0-11.45-.18-23.6-.35-36.51-.53-7.36-.4-14.74-.75-22.14-1.06-22.83-1-45.76-1.67-68.67-2.26h-.16c-21.53-.54-43.04-1-64.45-1.53-16.06-.38-32.07-.82-47.99-1.38-35.97-.59-74.32,1.75-111.24.63h-.1c-4.8-.15-9.55-.35-14.29-.63-.43-.01-.87-.04-1.28-.07-7.14-.43-14.21-1.03-21.17-1.85-2.31-.15-4.64-.28-6.97-.41-22.52-1.28-46-2.1-70.05-2.6-.06-.01-.14-.01-.2,0-55.14-1.17-116.94-.66-173.76-.13-56.81-.53-118.62-1.04-173.76.13-.06-.01-.14-.01-.2,0-24.06.5-47.54,1.32-70.05,2.6-2.33.13-4.66.26-6.97.41-6.97.82-14.03,1.42-21.17,1.85-.41.03-.85.06-1.28.07-4.74.28-9.49.48-14.29.63h-.1c-36.92,1.11-75.26-1.22-111.24-.63-15.93.56-31.93,1-47.99,1.38-21.41.53-42.92.98-64.45,1.53h-.16c-22.91.59-45.84,1.26-68.67,2.26-7.4.31-14.78.66-22.14,1.06-12.91.18-25.06.35-36.51.53-.08,0-.16.01-.22,0-22.58.38-42.37.82-59.73,1.51-13.97.56-26.38,1.26-37.4,2.24h-.08c-9.37.84-17.72,1.83-25.18,3.09-19.4,3.26-32.72,8.15-41.93,15.71-.83.67-1.62,1.36-2.37,2.08h-.02c-8.9,8.4-13.52,19.83-16.06,35.43h0c-2.01,12.25-2.74,27.06-3.32,45.01h0c-.49,15.65-.85,33.69-1.82,54.47v.1c-.32,6.78-.69,13.86-1.14,21.24-.08,1.42-.18,2.86-.24,4.28-.02.01-.02.03-.02.04-.77,13.67-1.4,27.34-1.87,41.04-.06,1.36-.1,2.73-.14,4.11-.24,6.67-.41,13.35-.59,20.03v.25c-1.46,59.18-.69,118.47.06,177.66-.75,59.19-1.52,118.49-.06,177.66v.25c.18,6.69.36,13.36.59,20.03.04,1.38.08,2.74.14,4.11.47,13.7,1.11,27.37,1.87,41.04,0,.01,0,.03.02.04.06,1.42.16,2.86.24,4.28.45,7.38.83,14.46,1.14,21.24v.1c.97,20.78,1.32,38.82,1.82,54.45h0c.57,17.97,1.3,32.78,3.32,45.01h0c2.55,15.62,7.16,27.04,16.06,35.45h.02c.75.72,1.54,1.41,2.37,2.08,9.22,7.55,22.54,12.45,41.93,15.71,7.46,1.26,15.81,2.26,25.18,3.09h.08c11.01.98,23.42,1.69,37.4,2.24,17.37.69,37.16,1.13,59.73,1.51.06-.01.14,0,.22,0,11.45.18,23.6.35,36.51.53,7.36.4,14.74.75,22.14,1.06,22.83,1,45.76,1.67,68.67,2.26h.16c21.53.54,43.04,1,64.45,1.53,16.06.38,32.07.82,47.99,1.38,35.97.59,74.32-1.75,111.24-.63h.1c4.8.15,9.55.35,14.29.63.43.01.87.04,1.28.07,7.14.43,14.21,1.03,21.17,1.85,2.31.15,4.64.28,6.97.41,22.52,1.28,46,2.1,70.05,2.6.06.01.14.01.2,0,55.14,1.17,116.94.66,173.76.13,56.81.53,118.62,1.04,173.76-.13.06.01.14.01.2,0,24.06-.5,47.54-1.32,70.05-2.6,2.33-.13,4.66-.26,6.97-.41,6.97-.82,14.03-1.42,21.17-1.85.41-.03.85-.06,1.28-.07,4.74-.28,9.49-.48,14.29-.63h.1c36.92-1.11,75.26,1.22,111.24.63,15.93-.56,31.93-1,47.99-1.38,21.41-.53,42.92-.98,64.45-1.53h.16c22.91-.59,45.84-1.26,68.67-2.26,7.4-.31,14.78-.66,22.14-1.06,12.91-.18,25.06-.35,36.51-.53.08,0,.16-.01.22,0,22.58-.38,42.37-.82,59.73-1.51,13.97-.56,26.38-1.26,37.4-2.24h.08c9.37-.84,17.72-1.83,25.18-3.09,19.4-3.26,32.72-8.15,41.93-15.71.83-.67,1.62-1.36,2.37-2.08h.02c8.9-8.4,13.52-19.83,16.06-35.43h0c2.01-12.25,2.74-27.06,3.32-45.01h0c.49-15.65.85-33.69,1.82-54.47v-.1c.32-6.78.69-13.86,1.14-21.24.08-1.42.18-2.86.24-4.28.02-.01.02-.03.02-.04.77-13.67,1.4-27.34,1.87-41.04.06-1.36.1-2.73.14-4.11.24-6.67.41-13.35.59-20.03v-.25c1.46-59.18.69-118.47-.06-177.66.75-59.19,1.52-118.49.06-177.66ZM1790.12,350.22v-.25c-.18-6.69-.36-13.36-.59-20.03-.04-1.38-.08-2.74-.14-4.11-.47-13.7-1.11-27.37-1.87-41.04,0-.01,0-.03-.02-.04-.06-1.42-.16-2.86-.24-4.28-.45-7.38-.83-14.46-1.14-21.24v-.1c-.97-20.78-1.32-38.82-1.82-54.45h0c-.57-17.97-1.3-32.78-3.32-45.01h0c-2.55-15.62-7.16-27.04-16.06-35.45h-.02c-.75-.72-1.54-1.41-2.37-2.08-9.22-7.55-22.54-12.45-41.93-15.71-7.46-1.26-15.81-2.26-25.18-3.09h-.08c-11.01-.98-23.42-1.69-37.4-2.24-17.37-.69-37.16-1.13-59.73-1.51-.06.01-.14,0-.22,0-11.45-.18-23.6-.35-36.51-.53-7.36-.4-14.74-.75-22.14-1.06-22.83-1-45.76-1.67-68.67-2.26h-.16c-21.53-.54-43.04-1-64.45-1.53-16.06-.38-32.07-.82-47.99-1.38-35.97-.59-74.32,1.75-111.24.63h-.1c-4.8-.15-9.55-.35-14.29-.63-.43-.01-.87-.04-1.28-.07-7.14-.43-14.21-1.03-21.17-1.85-2.31-.15-4.64-.28-6.97-.41-22.52-1.28-46-2.1-70.05-2.6-.06-.01-.14-.01-.2,0-55.14-1.17-116.94-.66-173.76-.13-56.81-.53-118.62-1.04-173.76.13-.06-.01-.14-.01-.2,0-24.06.5-47.54,1.32-70.05,2.6-2.33.13-4.66.26-6.97.41-6.97.82-14.03,1.42-21.17,1.85-.41.03-.85.06-1.28.07-4.74.28-9.49.48-14.29.63h-.1c-36.92,1.11-75.26-1.22-111.24-.63-15.93.56-31.93,1-47.99,1.38-21.41.53-42.92.98-64.45,1.53h-.16c-22.91.59-45.84,1.26-68.67,2.26-7.4.31-14.78.66-22.14,1.06-12.91.18-25.06.35-36.51.53-.08,0-.16.01-.22,0-22.58.38-42.37.82-59.73,1.51-13.97.56-26.38,1.26-37.4,2.24h-.08c-9.37.84-17.72,1.83-25.18,3.09-19.4,3.26-32.72,8.15-41.93,15.71-.83.67-1.62,1.36-2.37,2.08h-.02c-8.9,8.4-13.52,19.83-16.06,35.43h0c-2.01,12.25-2.74,27.06-3.32,45.01h0c-.49,15.65-.85,33.69-1.82,54.47v.1c-.32,6.78-.69,13.86-1.14,21.24-.08,1.42-.18,2.86-.24,4.28-.02.01-.02.03-.02.04-.77,13.67-1.4,27.34-1.87,41.04-.06,1.36-.1,2.73-.14,4.11-.24,6.67-.41,13.35-.59,20.03v.25c-1.46,59.18-.69,118.47.06,177.66-.75,59.19-1.52,118.49-.06,177.66v.25c.18,6.69.36,13.36.59,20.03.04,1.38.08,2.74.14,4.11.47,13.7,1.11,27.37,1.87,41.04,0,.01,0,.03.02.04.06,1.42.16,2.86.24,4.28.45,7.38.83,14.46,1.14,21.24v.1c.97,20.78,1.32,38.82,1.82,54.45h0c.57,17.97,1.3,32.78,3.32,45.01h0c2.55,15.62,7.16,27.04,16.06,35.45h.02c.75.72,1.54,1.41,2.37,2.08,9.22,7.55,22.54,12.45,41.93,15.71,7.46,1.26,15.81,2.26,25.18,3.09h.08c11.01.98,23.42,1.69,37.4,2.24,17.37.69,37.16,1.13,59.73,1.51.06-.01.14,0,.22,0,11.45.18,23.6.35,36.51.53,7.36.4,14.74.75,22.14,1.06,22.83,1,45.76,1.67,68.67,2.26h.16c21.53.54,43.04,1,64.45,1.53,16.06.38,32.07.82,47.99,1.38,35.97.59,74.32-1.75,111.24-.63h.1c4.8.15,9.55.35,14.29.63.43.01.87.04,1.28.07,7.14.43,14.21,1.03,21.17,1.85,2.31.15,4.64.28,6.97.41,22.52,1.28,46,2.1,70.05,2.6.06.01.14.01.2,0,55.14,1.17,116.94.66,173.76.13,56.81.53,118.62,1.04,173.76-.13.06.01.14.01.2,0,24.06-.5,47.54-1.32,70.05-2.6,2.33-.13,4.66-.26,6.97-.41,6.97-.82,14.03-1.42,21.17-1.85.41-.03.85-.06,1.28-.07,4.74-.28,9.49-.48,14.29-.63h.1c36.92-1.11,75.26,1.22,111.24.63,15.93-.56,31.93-1,47.99-1.38,21.41-.53,42.92-.98,64.45-1.53h.16c22.91-.59,45.84-1.26,68.67-2.26,7.4-.31,14.78-.66,22.14-1.06,12.91-.18,25.06-.35,36.51-.53.08,0,.16-.01.22,0,22.58-.38,42.37-.82,59.73-1.51,13.97-.56,26.38-1.26,37.4-2.24h.08c9.37-.84,17.72-1.83,25.18-3.09,19.4-3.26,32.72-8.15,41.93-15.71.83-.67,1.62-1.36,2.37-2.08h.02c8.9-8.4,13.52-19.83,16.06-35.43h0c2.01-12.25,2.74-27.06,3.32-45.01h0c.49-15.65.85-33.69,1.82-54.47v-.1c.32-6.78.69-13.86,1.14-21.24.08-1.42.18-2.86.24-4.28.02-.01.02-.03.02-.04.77-13.67,1.4-27.34,1.87-41.04.06-1.36.1-2.73.14-4.11.24-6.67.41-13.35.59-20.03v-.25c1.46-59.18.69-118.47-.06-177.66.75-59.19,1.52-118.49.06-177.66ZM1790.12,350.22v-.25c-.18-6.69-.36-13.36-.59-20.03-.04-1.38-.08-2.74-.14-4.11-.47-13.7-1.11-27.37-1.87-41.04,0-.01,0-.03-.02-.04-.06-1.42-.16-2.86-.24-4.28-.45-7.38-.83-14.46-1.14-21.24v-.1c-.97-20.78-1.32-38.82-1.82-54.45h0c-.57-17.97-1.3-32.78-3.32-45.01h0c-2.55-15.62-7.16-27.04-16.06-35.45h-.02c-.75-.72-1.54-1.41-2.37-2.08-9.22-7.55-22.54-12.45-41.93-15.71-7.46-1.26-15.81-2.26-25.18-3.09h-.08c-11.01-.98-23.42-1.69-37.4-2.24-17.37-.69-37.16-1.13-59.73-1.51-.06.01-.14,0-.22,0-11.45-.18-23.6-.35-36.51-.53-7.36-.4-14.74-.75-22.14-1.06-22.83-1-45.76-1.67-68.67-2.26h-.16c-21.53-.54-43.04-1-64.45-1.53-16.06-.38-32.07-.82-47.99-1.38-35.97-.59-74.32,1.75-111.24.63h-.1c-4.8-.15-9.55-.35-14.29-.63-.43-.01-.87-.04-1.28-.07-7.14-.43-14.21-1.03-21.17-1.85-2.31-.15-4.64-.28-6.97-.41-22.52-1.28-46-2.1-70.05-2.6-.06-.01-.14-.01-.2,0-55.14-1.17-116.94-.66-173.76-.13-56.81-.53-118.62-1.04-173.76.13-.06-.01-.14-.01-.2,0-24.06.5-47.54,1.32-70.05,2.6-2.33.13-4.66.26-6.97.41-6.97.82-14.03,1.42-21.17,1.85-.41.03-.85.06-1.28.07-4.74.28-9.49.48-14.29.63h-.1c-36.92,1.11-75.26-1.22-111.24-.63-15.93.56-31.93,1-47.99,1.38-21.41.53-42.92.98-64.45,1.53h-.16c-22.91.59-45.84,1.26-68.67,2.26-7.4.31-14.78.66-22.14,1.06-12.91.18-25.06.35-36.51.53-.08,0-.16.01-.22,0-22.58.38-42.37.82-59.73,1.51-13.97.56-26.38,1.26-37.4,2.24h-.08c-9.37.84-17.72,1.83-25.18,3.09-19.4,3.26-32.72,8.15-41.93,15.71-.83.67-1.62,1.36-2.37,2.08h-.02c-8.9,8.4-13.52,19.83-16.06,35.43h0c-2.01,12.25-2.74,27.06-3.32,45.01h0c-.49,15.65-.85,33.69-1.82,54.47v.1c-.32,6.78-.69,13.86-1.14,21.24-.08,1.42-.18,2.86-.24,4.28-.02.01-.02.03-.02.04-.77,13.67-1.4,27.34-1.87,41.04-.06,1.36-.1,2.73-.14,4.11-.24,6.67-.41,13.35-.59,20.03v.25c-1.46,59.18-.69,118.47.06,177.66-.75,59.19-1.52,118.49-.06,177.66v.25c.18,6.69.36,13.36.59,20.03.04,1.38.08,2.74.14,4.11.47,13.7,1.11,27.37,1.87,41.04,0,.01,0,.03.02.04.06,1.42.16,2.86.24,4.28.45,7.38.83,14.46,1.14,21.24v.1c.97,20.78,1.32,38.82,1.82,54.45h0c.57,17.97,1.3,32.78,3.32,45.01h0c2.55,15.62,7.16,27.04,16.06,35.45h.02c.75.72,1.54,1.41,2.37,2.08,9.22,7.55,22.54,12.45,41.93,15.71,7.46,1.26,15.81,2.26,25.18,3.09h.08c11.01.98,23.42,1.69,37.4,2.24,17.37.69,37.16,1.13,59.73,1.51.06-.01.14,0,.22,0,11.45.18,23.6.35,36.51.53,7.36.4,14.74.75,22.14,1.06,22.83,1,45.76,1.67,68.67,2.26h.16c21.53.54,43.04,1,64.45,1.53,16.06.38,32.07.82,47.99,1.38,35.97.59,74.32-1.75,111.24-.63h.1c4.8.15,9.55.35,14.29.63.43.01.87.04,1.28.07,7.14.43,14.21,1.03,21.17,1.85,2.31.15,4.64.28,6.97.41,22.52,1.28,46,2.1,70.05,2.6.06.01.14.01.2,0,55.14,1.17,116.94.66,173.76.13,56.81.53,118.62,1.04,173.76-.13.06.01.14.01.2,0,24.06-.5,47.54-1.32,70.05-2.6,2.33-.13,4.66-.26,6.97-.41,6.97-.82,14.03-1.42,21.17-1.85.41-.03.85-.06,1.28-.07,4.74-.28,9.49-.48,14.29-.63h.1c36.92-1.11,75.26,1.22,111.24.63,15.93-.56,31.93-1,47.99-1.38,21.41-.53,42.92-.98,64.45-1.53h.16c22.91-.59,45.84-1.26,68.67-2.26,7.4-.31,14.78-.66,22.14-1.06,12.91-.18,25.06-.35,36.51-.53.08,0,.16-.01.22,0,22.58-.38,42.37-.82,59.73-1.51,13.97-.56,26.38-1.26,37.4-2.24h.08c9.37-.84,17.72-1.83,25.18-3.09,19.4-3.26,32.72-8.15,41.93-15.71.83-.67,1.62-1.36,2.37-2.08h.02c8.9-8.4,13.52-19.83,16.06-35.43h0c2.01-12.25,2.74-27.06,3.32-45.01h0c.49-15.65.85-33.69,1.82-54.47v-.1c.32-6.78.69-13.86,1.14-21.24.08-1.42.18-2.86.24-4.28.02-.01.02-.03.02-.04.77-13.67,1.4-27.34,1.87-41.04.06-1.36.1-2.73.14-4.11.24-6.67.41-13.35.59-20.03v-.25c1.46-59.18.69-118.47-.06-177.66.75-59.19,1.52-118.49.06-177.66Z"/>
    <path class="cls-6" d="M1911.54,0c10.56,1.66,18.51,8.79,18.51,17.34v-.43c0-8.34-7.95-15.31-18.51-16.91ZM-10.05,16.91v.43C-10.05,8.79-2.1,1.66,8.46,0-2.1,1.6-10.05,8.57-10.05,16.91Z"/>
    <path class="cls-6" d="M1883.52,32.22c-4.2-3.12-10.01-5.05-16.4-5.05H52.88c-6.91,0-13.1,2.24-17.35,5.81-3.65,3.04-5.84,7.04-5.84,11.42v1.06c0-4.5,2.19-8.59,5.84-11.72.16-.13.32-.26.49-.4,4.2-3.4,10.2-5.54,16.85-5.54h1814.25c6.14,0,11.74,1.82,15.89,4.8.18.12.36.23.51.37,4.2,3.2,6.79,7.63,6.79,12.5v-1.06c0-4.75-2.59-9.06-6.79-12.19Z"/>
    <path class="cls-1" d="M1911.54,1.9c-1.52-.23-3.08-.35-4.68-.35H13.13c-1.6,0-3.16.12-4.68.35C-2.1,3.56-10.05,10.67-10.05,19.21v1043.15c0,9.75,10.38,17.64,23.19,17.64h1893.73c12.81,0,23.19-7.89,23.19-17.64V19.21c0-8.54-7.95-15.65-18.51-17.31ZM29.69,44.4c0-4.39,2.19-8.39,5.84-11.42,4.24-3.56,10.44-5.81,17.35-5.81h1814.25c6.39,0,12.2,1.92,16.4,5.05s6.79,7.44,6.79,12.19v966.96c0,4.75-2.59,9.06-6.79,12.19-4.2,3.12-10.01,5.05-16.4,5.05H52.88c-6.91,0-13.1-2.24-17.35-5.81-3.65-3.04-5.84-7.04-5.84-11.42V44.4Z"/>
    <path class="cls-5" d="M153.12,931.29c.75.72,1.54,1.41,2.37,2.09l-119.96,89.31c-3.65-3.04-5.84-7.05-5.84-11.45V42.58c0-4.39,2.19-8.4,5.84-11.44l119.96,89.31c-.83.68-1.62,1.37-2.37,2.09h-.02c-8.9,8.42-13.52,19.86-16.06,35.5h0c-2.01,12.27-2.74,27.11-3.32,45.09h0c-.49,15.68-.85,33.75-1.82,54.57v.1c-.32,6.79-.69,13.88-1.14,21.27-.08,1.43-.18,2.86-.24,4.29-.02.01-.02.03-.02.04-.77,13.69-1.4,27.39-1.87,41.11-.06,1.37-.1,2.73-.14,4.11-.24,6.68-.41,13.37-.59,20.07v.25c-1.46,59.28-.69,118.68.06,177.98-.75,59.3-1.52,118.7-.06,177.98v.25c.18,6.7.36,13.38.59,20.07.04,1.38.08,2.75.14,4.11.47,13.72,1.11,27.42,1.87,41.11,0,.01,0,.03.02.04.06,1.43.16,2.86.24,4.29.45,7.39.83,14.49,1.14,21.27v.1c.97,20.82,1.32,38.89,1.82,54.55h0c.57,18,1.3,32.84,3.32,45.09h0c2.55,15.65,7.16,27.09,16.06,35.51h.02Z"/>
    <path class="cls-4" d="M1883.52,1023.45c-4.2,3.13-10.01,5.05-16.4,5.05H52.88c-6.91,0-13.1-2.25-17.35-5.82l119.96-89.31c9.22,7.57,22.54,12.47,41.93,15.74,7.46,1.26,15.81,2.26,25.18,3.1h.08c11.01.98,23.42,1.69,37.4,2.25,17.37.69,37.16,1.13,59.73,1.51.06-.01.14,0,.22,0,11.45.18,23.6.35,36.51.53,7.36.4,14.74.75,22.14,1.06,22.83,1,45.76,1.67,68.67,2.26h.16c21.53.54,43.04,1,64.45,1.53,16.06.38,32.07.82,47.99,1.38,35.97.59,74.32-1.75,111.24-.63h.1c4.8.15,9.55.35,14.29.63.43.01.87.04,1.28.07,7.14.43,14.21,1.03,21.17,1.85,2.31.15,4.64.28,6.97.41,22.52,1.28,46,2.1,70.05,2.6.06.01.14.01.2,0,55.14,1.18,116.94.66,173.76.13,56.81.53,118.62,1.04,173.76-.13.06.01.14.01.2,0,24.06-.5,47.54-1.32,70.05-2.6,2.33-.13,4.66-.26,6.97-.41,6.97-.82,14.03-1.43,21.17-1.85.41-.03.85-.06,1.28-.07,4.74-.28,9.49-.48,14.29-.63h.1c36.92-1.12,75.26,1.22,111.24.63,15.93-.56,31.93-1,47.99-1.38,21.41-.53,42.92-.98,64.45-1.53h.16c22.91-.59,45.84-1.26,68.67-2.26,7.4-.31,14.78-.66,22.14-1.06,12.91-.18,25.06-.35,36.51-.53.08,0,.16-.01.22,0,22.58-.38,42.37-.82,59.73-1.51,13.97-.56,26.38-1.26,37.4-2.25h.08c9.37-.84,17.72-1.84,25.18-3.1,19.4-3.26,32.72-8.17,41.93-15.74l120.99,90.08Z"/>
    <path class="cls-5" d="M1890.31,42.58v968.66c0,4.76-2.59,9.08-6.79,12.21l-120.99-90.08c.83-.68,1.62-1.37,2.37-2.09h.02c8.9-8.42,13.52-19.86,16.06-35.5h0c2.01-12.27,2.74-27.11,3.32-45.09h0c.49-15.68.85-33.75,1.82-54.57v-.1c.32-6.79.69-13.88,1.14-21.27.08-1.43.18-2.86.24-4.29.02-.01.02-.03.02-.04.77-13.69,1.4-27.39,1.87-41.11.06-1.37.1-2.73.14-4.11.24-6.68.41-13.37.59-20.07v-.25c1.46-59.28.69-118.68-.06-177.98.75-59.3,1.52-118.7.06-177.98v-.25c-.18-6.7-.36-13.38-.59-20.07-.04-1.38-.08-2.75-.14-4.11-.47-13.72-1.11-27.42-1.87-41.11,0-.01,0-.03-.02-.04-.06-1.43-.16-2.86-.24-4.29-.45-7.39-.83-14.49-1.14-21.27v-.1c-.97-20.82-1.32-38.89-1.82-54.55h0c-.57-18-1.3-32.84-3.32-45.09h0c-2.55-15.65-7.16-27.09-16.06-35.51h-.02c-.75-.72-1.54-1.41-2.37-2.09l120.99-90.08c4.2,3.13,6.79,7.45,6.79,12.21Z"/>
    <path class="cls-3" d="M1883.52,32.22l-120.99,89.92c-9.22-7.55-22.54-12.45-41.93-15.71-7.46-1.26-15.81-2.26-25.18-3.09h-.08c-11.01-.98-23.42-1.69-37.4-2.24-17.37-.69-37.16-1.13-59.73-1.51-.06.01-.14,0-.22,0-11.45-.18-23.6-.35-36.51-.53-7.36-.4-14.74-.75-22.14-1.06-22.83-1-45.76-1.67-68.67-2.26h-.16c-21.53-.54-43.04-1-64.45-1.53-16.06-.38-32.07-.82-47.99-1.38-35.97-.59-74.32,1.75-111.24.63h-.1c-4.8-.15-9.55-.35-14.29-.63-.43-.01-.87-.04-1.28-.07-7.14-.43-14.21-1.03-21.17-1.85-2.31-.15-4.64-.28-6.97-.41-22.52-1.28-46-2.1-70.05-2.6-.06-.01-.14-.01-.2,0-55.14-1.17-116.94-.66-173.76-.13-56.81-.53-118.62-1.04-173.76.13-.06-.01-.14-.01-.2,0-24.06.5-47.54,1.32-70.05,2.6-2.33.13-4.66.26-6.97.41-6.97.82-14.03,1.42-21.17,1.85-.41.03-.85.06-1.28.07-4.74.28-9.49.48-14.29.63h-.1c-36.92,1.11-75.26-1.22-111.24-.63-15.93.56-31.93,1-47.99,1.38-21.41.53-42.92.98-64.45,1.53h-.16c-22.91.59-45.84,1.26-68.67,2.26-7.4.31-14.78.66-22.14,1.06-12.91.18-25.06.35-36.51.53-.08,0-.16.01-.22,0-22.58.38-42.37.82-59.73,1.51-13.97.56-26.38,1.26-37.4,2.24h-.08c-9.37.84-17.72,1.83-25.18,3.09-19.4,3.26-32.72,8.15-41.93,15.71L35.53,32.98c4.24-3.56,10.44-5.81,17.35-5.81h1814.25c6.39,0,12.2,1.92,16.4,5.05Z"/>
  </g>
  <g>
    <path class="cls-7" d="M938.85,1039.31v.5h-8.75v-.5h8.75ZM938.85,1040.51v.5h-8.75v-.5h8.75ZM938.85,1041.66v.5h-8.75v-.5h8.75ZM938.85,1042.86v.5h-8.75v-.5h8.75ZM938.85,1044.06v.5h-8.75v-.5h8.75ZM938.85,1045.31v.5h-8.75v-.5h8.75ZM938.85,1046.51v.5h-8.75v-.5h8.75ZM938.85,1047.76v.5h-8.75v-.5h8.75ZM930.1,1050.66h8.75v25.2h-8.75v-25.2Z"/>
    <path class="cls-7" d="M948.9,1057.66h8.75v9.05h-8.75v-9.05Z"/>
    <path class="cls-7" d="M967.7,1044.56s.1-.45.1-.5h21.7v.5h-21.8ZM967.7,1045.31h21.8v.5h-21.8v-.5ZM967.7,1046.51h21.8v.5h-21.8v-.5ZM967.7,1047.76h21.8v.5h-21.8v-.5ZM989.5,1066.71h-14.85c-3.9,0-6.95-2.8-6.95-6.95v-9.1h18.9v4.6h-9.95c0,1.5.25,2.4,2.15,2.4h10.7v9.05ZM967.95,1043.36s.1-.45.15-.5h21.4v.5h-21.55ZM968.4,1042.21s.25-.45.3-.5h20.8v.5h-21.1ZM989.5,1040.46v.5h-20.2c.1-.1.4-.4.55-.5h19.65ZM989.5,1039.31v.5h-18.55c.95-.4,1.7-.5,2.65-.5h15.9Z"/>
    <path class="cls-7" d="M999.5,1057.66h8.75v9.05h-8.75v-9.05Z"/>
    <path class="cls-7" d="M1027.05,1039.31v.5h-8.75v-.5h8.75ZM1027.05,1040.51v.5h-8.75v-.5h8.75ZM1027.05,1041.66v.5h-8.75v-.5h8.75ZM1027.05,1042.86v.5h-8.75v-.5h8.75ZM1027.05,1044.06v.5h-8.75v-.5h8.75ZM1027.05,1045.31v.5h-8.75v-.5h8.75ZM1027.05,1046.51v.5h-8.75v-.5h8.75ZM1027.05,1047.76v.5h-8.75v-.5h8.75ZM1052.65,1050.26v9.5c0,4.15-3.05,6.95-6.95,6.95h-5.8c-2.35,0-3.9-.95-4.6-2.85-.75,1.9-2.25,2.85-4.75,2.85h-5.3c-3.9,0-6.95-2.8-6.95-6.95v-9.5h8.75v4.35c0,1.7.65,2.7,1.9,2.7,1.4,0,2.15-.95,2.15-2.7v-4.35h8.75v4.35c0,1.8.65,2.75,2.05,2.75s2-1,2-2.75v-4.35h8.75ZM1039.85,1039.31v.5h-8.75v-.5h8.75ZM1039.85,1040.51v.5h-8.75v-.5h8.75ZM1039.85,1041.66v.5h-8.75v-.5h8.75ZM1039.85,1042.86v.5h-8.75v-.5h8.75ZM1039.85,1044.06v.5h-8.75v-.5h8.75ZM1039.85,1045.31v.5h-8.75v-.5h8.75ZM1039.85,1046.51v.5h-8.75v-.5h8.75ZM1039.85,1047.76v.5h-8.75v-.5h8.75ZM1052.65,1039.31v.5h-8.75v-.5h8.75ZM1052.65,1040.51v.5h-8.75v-.5h8.75ZM1052.65,1041.66v.5h-8.75v-.5h8.75ZM1052.65,1042.86v.5h-8.75v-.5h8.75ZM1052.65,1044.06v.5h-8.75v-.5h8.75ZM1052.65,1045.31v.5h-8.75v-.5h8.75ZM1052.65,1046.51v.5h-8.75v-.5h8.75ZM1052.65,1047.76v.5h-8.75v-.5h8.75Z"/>
    <path class="cls-7" d="M1062.65,1057.66h8.75v9.05h-8.75v-9.05Z"/>
  </g>
</svg>