<?xml version="1.0" encoding="UTF-8"?>
<svg id="Layer_1" data-name="Layer 1" xmlns="http://www.w3.org/2000/svg" viewBox="0 0 1512 982">
  <defs>
    <style>
      .cls-1, .cls-2, .cls-3, .cls-4, .cls-5 {
        stroke: #0a0a07;
        stroke-miterlimit: 10;
      }

      .cls-1, .cls-3, .cls-4, .cls-5 {
        stroke-width: 3px;
      }

      .cls-1, .cls-6 {
        fill: #2f2f27;
      }

      .cls-2 {
        fill: none;
        stroke-width: 6px;
      }

      .cls-3 {
        fill: #11110c;
      }

      .cls-4 {
        fill: #24241d;
      }

      .cls-5 {
        fill: #21211a;
      }
    </style>
  </defs>
  <path class="cls-2" d="M1410.1,478.63c.59,54.65,1.2,109.4.05,164.03v.23c-.14,6.17-.28,12.34-.47,18.5-.03,1.27-.06,2.53-.11,3.79-.37,12.65-.87,25.27-1.48,37.89,0,.01,0,.03-.02.04-.05,1.31-.12,2.64-.19,3.95-.36,6.81-.65,13.35-.9,19.61v.09c-.76,19.19-1.04,35.84-1.43,50.28h0c-.45,16.59-1.03,30.26-2.61,41.56h0c-2.01,14.42-5.64,24.97-12.66,32.73h-.02c-.59.66-1.21,1.3-1.87,1.92-7.26,6.97-17.76,11.5-33.04,14.5-5.88,1.16-12.45,2.09-19.84,2.86h-.06c-8.68.91-18.46,1.56-29.46,2.07-13.68.64-29.28,1.04-47.06,1.39-.05-.01-.11,0-.17,0-9.02.16-18.59.32-28.76.49-5.8.37-11.61.69-17.44.97-17.99.92-36.05,1.54-54.11,2.09h-.12c-16.96.5-33.91.92-50.78,1.41-12.66.35-25.26.76-37.81,1.27-28.34.54-58.55-1.61-87.64-.58h-.08c-3.78.14-7.53.33-11.26.58-.34.01-.68.04-1.01.07-5.63.39-11.19.95-16.68,1.71-1.82.14-3.65.26-5.49.38-17.74,1.18-36.24,1.94-55.19,2.4-.05.01-.11.01-.16,0-43.44,1.08-92.14.61-136.9.12-44.76.49-93.46.96-136.9-.12-.05.01-.11.01-.16,0-18.95-.46-37.45-1.22-55.19-2.4-1.83-.12-3.67-.24-5.49-.38-5.49-.76-11.05-1.31-16.68-1.71-.33-.03-.67-.05-1.01-.07-3.73-.26-7.48-.45-11.26-.58h-.08c-29.09-1.03-59.3,1.12-87.64.58-12.55-.51-25.16-.92-37.81-1.27-16.87-.49-33.82-.91-50.78-1.41h-.12c-18.05-.54-36.12-1.16-54.11-2.09-5.83-.28-11.65-.61-17.44-.97-10.17-.16-19.75-.32-28.76-.49-.06,0-.12-.01-.17,0-17.79-.35-33.38-.76-47.06-1.39-11.01-.51-20.79-1.16-29.46-2.07h-.06c-7.39-.77-13.96-1.69-19.84-2.86-15.28-3.01-25.78-7.53-33.04-14.5-.65-.62-1.27-1.26-1.87-1.92h-.02c-7.01-7.76-10.65-18.31-12.66-32.71h0c-1.59-11.31-2.16-24.98-2.61-41.56h0c-.39-14.45-.67-31.1-1.43-50.29v-.09c-.25-6.26-.54-12.8-.9-19.61-.06-1.31-.14-2.64-.19-3.95-.02-.01-.02-.03-.02-.04-.61-12.62-1.1-25.24-1.48-37.89-.05-1.26-.08-2.52-.11-3.79-.19-6.16-.33-12.32-.47-18.5v-.23c-1.15-54.64-.54-109.38.05-164.03-.59-54.65-1.2-109.4-.05-164.03v-.23c.14-6.17.28-12.34.47-18.5.03-1.27.06-2.53.11-3.79.37-12.65.87-25.27,1.48-37.89,0-.01,0-.03.02-.04.05-1.31.12-2.64.19-3.95.36-6.81.65-13.35.9-19.61v-.09c.76-19.19,1.04-35.84,1.43-50.28h0c.45-16.59,1.03-30.26,2.61-41.56h0c2.01-14.42,5.64-24.97,12.66-32.73h.02c.59-.66,1.21-1.3,1.87-1.92,7.26-6.97,17.76-11.5,33.04-14.5,5.88-1.16,12.45-2.09,19.84-2.86h.06c8.68-.91,18.46-1.56,29.46-2.07,13.68-.64,29.28-1.04,47.06-1.39.05.01.11,0,.17,0,9.02-.16,18.59-.32,28.76-.49,5.8-.37,11.61-.69,17.44-.97,17.99-.92,36.05-1.54,54.11-2.09h.12c16.96-.5,33.91-.92,50.78-1.41,12.66-.35,25.26-.76,37.81-1.27,28.34-.54,58.55,1.61,87.64.58h.08c3.78-.14,7.53-.32,11.26-.58.34-.01.68-.04,1.01-.07,5.63-.39,11.19-.95,16.68-1.71,1.82-.14,3.65-.26,5.49-.38,17.74-1.18,36.24-1.94,55.19-2.4.05-.01.11-.01.16,0,43.44-1.08,92.14-.61,136.9-.12,44.76-.49,93.46-.96,136.9.12.05-.01.11-.01.16,0,18.95.46,37.45,1.22,55.19,2.4,1.83.12,3.67.24,5.49.38,5.49.76,11.05,1.31,16.68,1.71.33.03.67.05,1.01.07,3.73.26,7.48.45,11.26.58h.08c29.09,1.03,59.3-1.12,87.64-.58,12.55.51,25.16.92,37.81,1.27,16.87.49,33.82.91,50.78,1.41h.12c18.05.54,36.12,1.16,54.11,2.09,5.83.28,11.65.61,17.44.97,10.17.16,19.75.32,28.76.49.06,0,.12.01.17,0,17.79.35,33.38.76,47.06,1.39,11.01.51,20.79,1.16,29.46,2.07h.06c7.39.77,13.96,1.69,19.84,2.86,15.28,3.01,25.78,7.53,33.04,14.5.65.62,1.28,1.26,1.87,1.92h.02c7.01,7.76,10.65,18.31,12.66,32.71h0c1.59,11.31,2.16,24.98,2.61,41.56h0c.39,14.45.67,31.1,1.43,50.29v.09c.25,6.26.54,12.8.9,19.61.06,1.31.14,2.64.19,3.95.02.01.02.03.02.04.61,12.62,1.1,25.24,1.48,37.89.05,1.26.08,2.52.11,3.79.19,6.16.33,12.32.47,18.5v.23c1.15,54.64.54,109.38-.05,164.03Z"/>
  <path class="cls-2" d="M1410.1,478.63c.59,54.65,1.2,109.4.05,164.03v.23c-.14,6.17-.28,12.34-.47,18.5-.03,1.27-.06,2.53-.11,3.79-.37,12.65-.87,25.27-1.48,37.89,0,.01,0,.03-.02.04-.05,1.31-.12,2.64-.19,3.95-.36,6.81-.65,13.35-.9,19.61v.09c-.76,19.19-1.04,35.84-1.43,50.28h0c-.45,16.59-1.03,30.26-2.61,41.56h0c-2.01,14.42-5.64,24.97-12.66,32.73h-.02c-.59.66-1.21,1.3-1.87,1.92-7.26,6.97-17.76,11.5-33.04,14.5-5.88,1.16-12.45,2.09-19.84,2.86h-.06c-8.68.91-18.46,1.56-29.46,2.07-13.68.64-29.28,1.04-47.06,1.39-.05-.01-.11,0-.17,0-9.02.16-18.59.32-28.76.49-5.8.37-11.61.69-17.44.97-17.99.92-36.05,1.54-54.11,2.09h-.12c-16.96.5-33.91.92-50.78,1.41-12.66.35-25.26.76-37.81,1.27-28.34.54-58.55-1.61-87.64-.58h-.08c-3.78.14-7.53.33-11.26.58-.34.01-.68.04-1.01.07-5.63.39-11.19.95-16.68,1.71-1.82.14-3.65.26-5.49.38-17.74,1.18-36.24,1.94-55.19,2.4-.05.01-.11.01-.16,0-43.44,1.08-92.14.61-136.9.12-44.76.49-93.46.96-136.9-.12-.05.01-.11.01-.16,0-18.95-.46-37.45-1.22-55.19-2.4-1.83-.12-3.67-.24-5.49-.38-5.49-.76-11.05-1.31-16.68-1.71-.33-.03-.67-.05-1.01-.07-3.73-.26-7.48-.45-11.26-.58h-.08c-29.09-1.03-59.3,1.12-87.64.58-12.55-.51-25.16-.92-37.81-1.27-16.87-.49-33.82-.91-50.78-1.41h-.12c-18.05-.54-36.12-1.16-54.11-2.09-5.83-.28-11.65-.61-17.44-.97-10.17-.16-19.75-.32-28.76-.49-.06,0-.12-.01-.17,0-17.79-.35-33.38-.76-47.06-1.39-11.01-.51-20.79-1.16-29.46-2.07h-.06c-7.39-.77-13.96-1.69-19.84-2.86-15.28-3.01-25.78-7.53-33.04-14.5-.65-.62-1.27-1.26-1.87-1.92h-.02c-7.01-7.76-10.65-18.31-12.66-32.71h0c-1.59-11.31-2.16-24.98-2.61-41.56h0c-.39-14.45-.67-31.1-1.43-50.29v-.09c-.25-6.26-.54-12.8-.9-19.61-.06-1.31-.14-2.64-.19-3.95-.02-.01-.02-.03-.02-.04-.61-12.62-1.1-25.24-1.48-37.89-.05-1.26-.08-2.52-.11-3.79-.19-6.16-.33-12.32-.47-18.5v-.23c-1.15-54.64-.54-109.38.05-164.03-.59-54.65-1.2-109.4-.05-164.03v-.23c.14-6.17.28-12.34.47-18.5.03-1.27.06-2.53.11-3.79.37-12.65.87-25.27,1.48-37.89,0-.01,0-.03.02-.04.05-1.31.12-2.64.19-3.95.36-6.81.65-13.35.9-19.61v-.09c.76-19.19,1.04-35.84,1.43-50.28h0c.45-16.59,1.03-30.26,2.61-41.56h0c2.01-14.42,5.64-24.97,12.66-32.73h.02c.59-.66,1.21-1.3,1.87-1.92,7.26-6.97,17.76-11.5,33.04-14.5,5.88-1.16,12.45-2.09,19.84-2.86h.06c8.68-.91,18.46-1.56,29.46-2.07,13.68-.64,29.28-1.04,47.06-1.39.05.01.11,0,.17,0,9.02-.16,18.59-.32,28.76-.49,5.8-.37,11.61-.69,17.44-.97,17.99-.92,36.05-1.54,54.11-2.09h.12c16.96-.5,33.91-.92,50.78-1.41,12.66-.35,25.26-.76,37.81-1.27,28.34-.54,58.55,1.61,87.64.58h.08c3.78-.14,7.53-.32,11.26-.58.34-.01.68-.04,1.01-.07,5.63-.39,11.19-.95,16.68-1.71,1.82-.14,3.65-.26,5.49-.38,17.74-1.18,36.24-1.94,55.19-2.4.05-.01.11-.01.16,0,43.44-1.08,92.14-.61,136.9-.12,44.76-.49,93.46-.96,136.9.12.05-.01.11-.01.16,0,18.95.46,37.45,1.22,55.19,2.4,1.83.12,3.67.24,5.49.38,5.49.76,11.05,1.31,16.68,1.71.33.03.67.05,1.01.07,3.73.26,7.48.45,11.26.58h.08c29.09,1.03,59.3-1.12,87.64-.58,12.55.51,25.16.92,37.81,1.27,16.87.49,33.82.91,50.78,1.41h.12c18.05.54,36.12,1.16,54.11,2.09,5.83.28,11.65.61,17.44.97,10.17.16,19.75.32,28.76.49.06,0,.12.01.17,0,17.79.35,33.38.76,47.06,1.39,11.01.51,20.79,1.16,29.46,2.07h.06c7.39.77,13.96,1.69,19.84,2.86,15.28,3.01,25.78,7.53,33.04,14.5.65.62,1.28,1.26,1.87,1.92h.02c7.01,7.76,10.65,18.31,12.66,32.71h0c1.59,11.31,2.16,24.98,2.61,41.56h0c.39,14.45.67,31.1,1.43,50.29v.09c.25,6.26.54,12.8.9,19.61.06,1.31.14,2.64.19,3.95.02.01.02.03.02.04.61,12.62,1.1,25.24,1.48,37.89.05,1.26.08,2.52.11,3.79.19,6.16.33,12.32.47,18.5v.23c1.15,54.64.54,109.38-.05,164.03Z"/>
  <path class="cls-2" d="M1410.15,314.6v-.23c-.14-6.17-.28-12.34-.47-18.5-.03-1.27-.06-2.53-.11-3.79-.37-12.65-.87-25.27-1.48-37.89,0-.01,0-.03-.02-.04-.05-1.31-.12-2.64-.19-3.95-.36-6.81-.65-13.35-.9-19.61v-.09c-.76-19.19-1.04-35.84-1.43-50.28h0c-.45-16.59-1.03-30.26-2.61-41.56h0c-2.01-14.42-5.64-24.97-12.66-32.73h-.02c-.59-.66-1.21-1.3-1.87-1.92-7.26-6.97-17.76-11.5-33.04-14.5-5.88-1.16-12.45-2.09-19.84-2.86h-.06c-8.68-.91-18.46-1.56-29.46-2.07-13.68-.64-29.28-1.04-47.06-1.39-.05.01-.11,0-.17,0-9.02-.16-18.59-.32-28.76-.49-5.8-.37-11.61-.69-17.44-.97-17.99-.92-36.05-1.54-54.11-2.09h-.12c-16.96-.5-33.91-.92-50.78-1.41-12.66-.35-25.26-.76-37.81-1.27-28.34-.54-58.55,1.61-87.64.58h-.08c-3.78-.14-7.53-.32-11.26-.58-.34-.01-.68-.04-1.01-.07-5.63-.39-11.19-.95-16.68-1.71-1.82-.14-3.65-.26-5.49-.38-17.74-1.18-36.24-1.94-55.19-2.4-.05-.01-.11-.01-.16,0-43.44-1.08-92.14-.61-136.9-.12-44.76-.49-93.46-.96-136.9.12-.05-.01-.11-.01-.16,0-18.95.46-37.45,1.22-55.19,2.4-1.83.12-3.67.24-5.49.38-5.49.76-11.05,1.31-16.68,1.71-.33.03-.67.05-1.01.07-3.73.26-7.48.45-11.26.58h-.08c-29.09,1.03-59.3-1.12-87.64-.58-12.55.51-25.16.92-37.81,1.27-16.87.49-33.82.91-50.78,1.41h-.12c-18.05.54-36.12,1.16-54.11,2.09-5.83.28-11.65.61-17.44.97-10.17.16-19.75.32-28.76.49-.06,0-.12.01-.17,0-17.79.35-33.38.76-47.06,1.39-11.01.51-20.79,1.16-29.46,2.07h-.06c-7.39.77-13.96,1.69-19.84,2.86-15.28,3.01-25.78,7.53-33.04,14.5-.65.62-1.27,1.26-1.87,1.92h-.02c-7.01,7.76-10.65,18.31-12.66,32.71h0c-1.59,11.31-2.16,24.98-2.61,41.56h0c-.39,14.45-.67,31.1-1.43,50.29v.09c-.25,6.26-.54,12.8-.9,19.61-.06,1.31-.14,2.64-.19,3.95-.02.01-.02.03-.02.04-.61,12.62-1.1,25.24-1.48,37.89-.05,1.26-.08,2.52-.11,3.79-.19,6.16-.33,12.32-.47,18.5v.23c-1.15,54.64-.54,109.38.05,164.03-.59,54.65-1.2,109.4-.05,164.03v.23c.14,6.17.28,12.34.47,18.5.03,1.27.06,2.53.11,3.79.37,12.65.87,25.27,1.48,37.89,0,.01,0,.03.02.04.05,1.31.12,2.64.19,3.95.36,6.81.65,13.35.9,19.61v.09c.76,19.19,1.04,35.84,1.43,50.28h0c.45,16.59,1.03,30.26,2.61,41.56h0c2.01,14.42,5.64,24.97,12.66,32.73h.02c.59.66,1.21,1.3,1.87,1.92,7.26,6.97,17.76,11.5,33.04,14.5,5.88,1.16,12.45,2.09,19.84,2.86h.06c8.68.91,18.46,1.56,29.46,2.07,13.68.64,29.28,1.04,47.06,1.39.05-.01.11,0,.17,0,9.02.16,18.59.32,28.76.49,5.8.37,11.61.69,17.44.97,17.99.92,36.05,1.54,54.11,2.09h.12c16.96.5,33.91.92,50.78,1.41,12.66.35,25.26.76,37.81,1.27,28.34.54,58.55-1.61,87.64-.58h.08c3.78.14,7.53.33,11.26.58.34.01.68.04,1.01.07,5.63.39,11.19.95,16.68,1.71,1.82.14,3.65.26,5.49.38,17.74,1.18,36.24,1.94,55.19,2.4.05.01.11.01.16,0,43.44,1.08,92.14.61,136.9.12,44.76.49,93.46.96,136.9-.12.05.01.11.01.16,0,18.95-.46,37.45-1.22,55.19-2.4,1.83-.12,3.67-.24,5.49-.38,5.49-.76,11.05-1.31,16.68-1.71.33-.03.67-.05,1.01-.07,3.73-.26,7.48-.45,11.26-.58h.08c29.09-1.03,59.3,1.12,87.64.58,12.55-.51,25.16-.92,37.81-1.27,16.87-.49,33.82-.91,50.78-1.41h.12c18.05-.54,36.12-1.16,54.11-2.09,5.83-.28,11.65-.61,17.44-.97,10.17-.16,19.75-.32,28.76-.49.06,0,.12-.01.17,0,17.79-.35,33.38-.76,47.06-1.39,11.01-.51,20.79-1.16,29.46-2.07h.06c7.39-.77,13.96-1.69,19.84-2.86,15.28-3.01,25.78-7.53,33.04-14.5.65-.62,1.28-1.26,1.87-1.92h.02c7.01-7.76,10.65-18.31,12.66-32.71h0c1.59-11.31,2.16-24.98,2.61-41.56h0c.39-14.45.67-31.1,1.43-50.29v-.09c.25-6.26.54-12.8.9-19.61.06-1.31.14-2.64.19-3.95.02-.01.02-.03.02-.04.61-12.62,1.1-25.24,1.48-37.89.05-1.26.08-2.52.11-3.79.19-6.16.33-12.32.47-18.5v-.23c1.15-54.64.54-109.38-.05-164.03.59-54.65,1.2-109.4.05-164.03ZM1410.15,314.6v-.23c-.14-6.17-.28-12.34-.47-18.5-.03-1.27-.06-2.53-.11-3.79-.37-12.65-.87-25.27-1.48-37.89,0-.01,0-.03-.02-.04-.05-1.31-.12-2.64-.19-3.95-.36-6.81-.65-13.35-.9-19.61v-.09c-.76-19.19-1.04-35.84-1.43-50.28h0c-.45-16.59-1.03-30.26-2.61-41.56h0c-2.01-14.42-5.64-24.97-12.66-32.73h-.02c-.59-.66-1.21-1.3-1.87-1.92-7.26-6.97-17.76-11.5-33.04-14.5-5.88-1.16-12.45-2.09-19.84-2.86h-.06c-8.68-.91-18.46-1.56-29.46-2.07-13.68-.64-29.28-1.04-47.06-1.39-.05.01-.11,0-.17,0-9.02-.16-18.59-.32-28.76-.49-5.8-.37-11.61-.69-17.44-.97-17.99-.92-36.05-1.54-54.11-2.09h-.12c-16.96-.5-33.91-.92-50.78-1.41-12.66-.35-25.26-.76-37.81-1.27-28.34-.54-58.55,1.61-87.64.58h-.08c-3.78-.14-7.53-.32-11.26-.58-.34-.01-.68-.04-1.01-.07-5.63-.39-11.19-.95-16.68-1.71-1.82-.14-3.65-.26-5.49-.38-17.74-1.18-36.24-1.94-55.19-2.4-.05-.01-.11-.01-.16,0-43.44-1.08-92.14-.61-136.9-.12-44.76-.49-93.46-.96-136.9.12-.05-.01-.11-.01-.16,0-18.95.46-37.45,1.22-55.19,2.4-1.83.12-3.67.24-5.49.38-5.49.76-11.05,1.31-16.68,1.71-.33.03-.67.05-1.01.07-3.73.26-7.48.45-11.26.58h-.08c-29.09,1.03-59.3-1.12-87.64-.58-12.55.51-25.16.92-37.81,1.27-16.87.49-33.82.91-50.78,1.41h-.12c-18.05.54-36.12,1.16-54.11,2.09-5.83.28-11.65.61-17.44.97-10.17.16-19.75.32-28.76.49-.06,0-.12.01-.17,0-17.79.35-33.38.76-47.06,1.39-11.01.51-20.79,1.16-29.46,2.07h-.06c-7.39.77-13.96,1.69-19.84,2.86-15.28,3.01-25.78,7.53-33.04,14.5-.65.62-1.27,1.26-1.87,1.92h-.02c-7.01,7.76-10.65,18.31-12.66,32.71h0c-1.59,11.31-2.16,24.98-2.61,41.56h0c-.39,14.45-.67,31.1-1.43,50.29v.09c-.25,6.26-.54,12.8-.9,19.61-.06,1.31-.14,2.64-.19,3.95-.02.01-.02.03-.02.04-.61,12.62-1.1,25.24-1.48,37.89-.05,1.26-.08,2.52-.11,3.79-.19,6.16-.33,12.32-.47,18.5v.23c-1.15,54.64-.54,109.38.05,164.03-.59,54.65-1.2,109.4-.05,164.03v.23c.14,6.17.28,12.34.47,18.5.03,1.27.06,2.53.11,3.79.37,12.65.87,25.27,1.48,37.89,0,.01,0,.03.02.04.05,1.31.12,2.64.19,3.95.36,6.81.65,13.35.9,19.61v.09c.76,19.19,1.04,35.84,1.43,50.28h0c.45,16.59,1.03,30.26,2.61,41.56h0c2.01,14.42,5.64,24.97,12.66,32.73h.02c.59.66,1.21,1.3,1.87,1.92,7.26,6.97,17.76,11.5,33.04,14.5,5.88,1.16,12.45,2.09,19.84,2.86h.06c8.68.91,18.46,1.56,29.46,2.07,13.68.64,29.28,1.04,47.06,1.39.05-.01.11,0,.17,0,9.02.16,18.59.32,28.76.49,5.8.37,11.61.69,17.44.97,17.99.92,36.05,1.54,54.11,2.09h.12c16.96.5,33.91.92,50.78,1.41,12.66.35,25.26.76,37.81,1.27,28.34.54,58.55-1.61,87.64-.58h.08c3.78.14,7.53.33,11.26.58.34.01.68.04,1.01.07,5.63.39,11.19.95,16.68,1.71,1.82.14,3.65.26,5.49.38,17.74,1.18,36.24,1.94,55.19,2.4.05.01.11.01.16,0,43.44,1.08,92.14.61,136.9.12,44.76.49,93.46.96,136.9-.12.05.01.11.01.16,0,18.95-.46,37.45-1.22,55.19-2.4,1.83-.12,3.67-.24,5.49-.38,5.49-.76,11.05-1.31,16.68-1.71.33-.03.67-.05,1.01-.07,3.73-.26,7.48-.45,11.26-.58h.08c29.09-1.03,59.3,1.12,87.64.58,12.55-.51,25.16-.92,37.81-1.27,16.87-.49,33.82-.91,50.78-1.41h.12c18.05-.54,36.12-1.16,54.11-2.09,5.83-.28,11.65-.61,17.44-.97,10.17-.16,19.75-.32,28.76-.49.06,0,.12-.01.17,0,17.79-.35,33.38-.76,47.06-1.39,11.01-.51,20.79-1.16,29.46-2.07h.06c7.39-.77,13.96-1.69,19.84-2.86,15.28-3.01,25.78-7.53,33.04-14.5.65-.62,1.28-1.26,1.87-1.92h.02c7.01-7.76,10.65-18.31,12.66-32.71h0c1.59-11.31,2.16-24.98,2.61-41.56h0c.39-14.45.67-31.1,1.43-50.29v-.09c.25-6.26.54-12.8.9-19.61.06-1.31.14-2.64.19-3.95.02-.01.02-.03.02-.04.61-12.62,1.1-25.24,1.48-37.89.05-1.26.08-2.52.11-3.79.19-6.16.33-12.32.47-18.5v-.23c1.15-54.64.54-109.38-.05-164.03.59-54.65,1.2-109.4.05-164.03ZM1410.15,314.6v-.23c-.14-6.17-.28-12.34-.47-18.5-.03-1.27-.06-2.53-.11-3.79-.37-12.65-.87-25.27-1.48-37.89,0-.01,0-.03-.02-.04-.05-1.31-.12-2.64-.19-3.95-.36-6.81-.65-13.35-.9-19.61v-.09c-.76-19.19-1.04-35.84-1.43-50.28h0c-.45-16.59-1.03-30.26-2.61-41.56h0c-2.01-14.42-5.64-24.97-12.66-32.73h-.02c-.59-.66-1.21-1.3-1.87-1.92-7.26-6.97-17.76-11.5-33.04-14.5-5.88-1.16-12.45-2.09-19.84-2.86h-.06c-8.68-.91-18.46-1.56-29.46-2.07-13.68-.64-29.28-1.04-47.06-1.39-.05.01-.11,0-.17,0-9.02-.16-18.59-.32-28.76-.49-5.8-.37-11.61-.69-17.44-.97-17.99-.92-36.05-1.54-54.11-2.09h-.12c-16.96-.5-33.91-.92-50.78-1.41-12.66-.35-25.26-.76-37.81-1.27-28.34-.54-58.55,1.61-87.64.58h-.08c-3.78-.14-7.53-.32-11.26-.58-.34-.01-.68-.04-1.01-.07-5.63-.39-11.19-.95-16.68-1.71-1.82-.14-3.65-.26-5.49-.38-17.74-1.18-36.24-1.94-55.19-2.4-.05-.01-.11-.01-.16,0-43.44-1.08-92.14-.61-136.9-.12-44.76-.49-93.46-.96-136.9.12-.05-.01-.11-.01-.16,0-18.95.46-37.45,1.22-55.19,2.4-1.83.12-3.67.24-5.49.38-5.49.76-11.05,1.31-16.68,1.71-.33.03-.67.05-1.01.07-3.73.26-7.48.45-11.26.58h-.08c-29.09,1.03-59.3-1.12-87.64-.58-12.55.51-25.16.92-37.81,1.27-16.87.49-33.82.91-50.78,1.41h-.12c-18.05.54-36.12,1.16-54.11,2.09-5.83.28-11.65.61-17.44.97-10.17.16-19.75.32-28.76.49-.06,0-.12.01-.17,0-17.79.35-33.38.76-47.06,1.39-11.01.51-20.79,1.16-29.46,2.07h-.06c-7.39.77-13.96,1.69-19.84,2.86-15.28,3.01-25.78,7.53-33.04,14.5-.65.62-1.27,1.26-1.87,1.92h-.02c-7.01,7.76-10.65,18.31-12.66,32.71h0c-1.59,11.31-2.16,24.98-2.61,41.56h0c-.39,14.45-.67,31.1-1.43,50.29v.09c-.25,6.26-.54,12.8-.9,19.61-.06,1.31-.14,2.64-.19,3.95-.02.01-.02.03-.02.04-.61,12.62-1.1,25.24-1.48,37.89-.05,1.26-.08,2.52-.11,3.79-.19,6.16-.33,12.32-.47,18.5v.23c-1.15,54.64-.54,109.38.05,164.03-.59,54.65-1.2,109.4-.05,164.03v.23c.14,6.17.28,12.34.47,18.5.03,1.27.06,2.53.11,3.79.37,12.65.87,25.27,1.48,37.89,0,.01,0,.03.02.04.05,1.31.12,2.64.19,3.95.36,6.81.65,13.35.9,19.61v.09c.76,19.19,1.04,35.84,1.43,50.28h0c.45,16.59,1.03,30.26,2.61,41.56h0c2.01,14.42,5.64,24.97,12.66,32.73h.02c.59.66,1.21,1.3,1.87,1.92,7.26,6.97,17.76,11.5,33.04,14.5,5.88,1.16,12.45,2.09,19.84,2.86h.06c8.68.91,18.46,1.56,29.46,2.07,13.68.64,29.28,1.04,47.06,1.39.05-.01.11,0,.17,0,9.02.16,18.59.32,28.76.49,5.8.37,11.61.69,17.44.97,17.99.92,36.05,1.54,54.11,2.09h.12c16.96.5,33.91.92,50.78,1.41,12.66.35,25.26.76,37.81,1.27,28.34.54,58.55-1.61,87.64-.58h.08c3.78.14,7.53.33,11.26.58.34.01.68.04,1.01.07,5.63.39,11.19.95,16.68,1.71,1.82.14,3.65.26,5.49.38,17.74,1.18,36.24,1.94,55.19,2.4.05.01.11.01.16,0,43.44,1.08,92.14.61,136.9.12,44.76.49,93.46.96,136.9-.12.05.01.11.01.16,0,18.95-.46,37.45-1.22,55.19-2.4,1.83-.12,3.67-.24,5.49-.38,5.49-.76,11.05-1.31,16.68-1.71.33-.03.67-.05,1.01-.07,3.73-.26,7.48-.45,11.26-.58h.08c29.09-1.03,59.3,1.12,87.64.58,12.55-.51,25.16-.92,37.81-1.27,16.87-.49,33.82-.91,50.78-1.41h.12c18.05-.54,36.12-1.16,54.11-2.09,5.83-.28,11.65-.61,17.44-.97,10.17-.16,19.75-.32,28.76-.49.06,0,.12-.01.17,0,17.79-.35,33.38-.76,47.06-1.39,11.01-.51,20.79-1.16,29.46-2.07h.06c7.39-.77,13.96-1.69,19.84-2.86,15.28-3.01,25.78-7.53,33.04-14.5.65-.62,1.28-1.26,1.87-1.92h.02c7.01-7.76,10.65-18.31,12.66-32.71h0c1.59-11.31,2.16-24.98,2.61-41.56h0c.39-14.45.67-31.1,1.43-50.29v-.09c.25-6.26.54-12.8.9-19.61.06-1.31.14-2.64.19-3.95.02-.01.02-.03.02-.04.61-12.62,1.1-25.24,1.48-37.89.05-1.26.08-2.52.11-3.79.19-6.16.33-12.32.47-18.5v-.23c1.15-54.64.54-109.38-.05-164.03.59-54.65,1.2-109.4.05-164.03Z"/>
  <path class="cls-6" d="M1505.81-8.75c8.32,1.53,14.58,8.11,14.58,16.01v-.39c0-7.7-6.27-14.13-14.58-15.61ZM-8.16,6.86v.39C-8.16-.64-1.89-7.22,6.43-8.75-1.89-7.27-8.16-.84-8.16,6.86Z"/>
  <path class="cls-6" d="M1483.73,20.99c-3.31-2.88-7.88-4.66-12.92-4.66H41.43c-5.44,0-10.32,2.07-13.67,5.36-2.88,2.8-4.6,6.5-4.6,10.55v.97c0-4.16,1.73-7.93,4.6-10.82.12-.12.25-.24.39-.37,3.31-3.14,8.04-5.12,13.28-5.12h1429.39c4.84,0,9.25,1.68,12.52,4.43.14.11.28.22.4.34,3.31,2.95,5.35,7.04,5.35,11.54v-.97c0-4.39-2.04-8.37-5.35-11.25Z"/>
  <path class="cls-1" d="M1505.81-7c-1.2-.22-2.43-.32-3.68-.32H10.11c-1.26,0-2.49.11-3.68.32C-1.89-5.47-8.16,1.1-8.16,8.98v963.12c0,9,8.18,16.29,18.27,16.29h1492.01c10.09,0,18.27-7.29,18.27-16.29V8.98c0-7.88-6.27-14.45-14.58-15.98ZM23.16,32.25c0-4.05,1.73-7.75,4.6-10.55,3.34-3.29,8.22-5.36,13.67-5.36h1429.39c5.04,0,9.61,1.77,12.92,4.66s5.35,6.87,5.35,11.25v892.78c0,4.39-2.04,8.37-5.35,11.25s-7.88,4.66-12.92,4.66H41.43c-5.44,0-10.32-2.07-13.67-5.36-2.88-2.8-4.6-6.5-4.6-10.55V32.25Z"/>
  <path class="cls-5" d="M120.41,851.09c.59.66,1.21,1.3,1.87,1.93l-94.51,82.46c-2.88-2.81-4.6-6.51-4.6-10.57V30.56c0-4.06,1.73-7.76,4.6-10.57l94.51,82.46c-.65.62-1.27,1.26-1.87,1.93h-.02c-7.01,7.77-10.65,18.34-12.66,32.77h0c-1.59,11.33-2.16,25.03-2.61,41.63h0c-.39,14.47-.67,31.16-1.43,50.38v.09c-.25,6.27-.54,12.82-.9,19.64-.06,1.32-.14,2.65-.19,3.96-.02.01-.02.03-.02.04-.61,12.64-1.1,25.28-1.48,37.95-.05,1.26-.08,2.52-.11,3.8-.19,6.17-.33,12.34-.47,18.53v.23c-1.15,54.73-.54,109.58.05,164.32-.59,54.75-1.2,109.59-.05,164.32v.23c.14,6.19.28,12.36.47,18.53.03,1.28.06,2.54.11,3.8.37,12.67.87,25.31,1.48,37.95,0,.01,0,.03.02.04.05,1.32.12,2.65.19,3.96.36,6.82.65,13.37.9,19.64v.09c.76,19.22,1.04,35.91,1.43,50.37h0c.45,16.62,1.03,30.32,2.61,41.63h0c2.01,14.45,5.64,25.01,12.66,32.79h.02Z"/>
  <path class="cls-4" d="M1483.73,936.18c-3.31,2.89-7.88,4.67-12.92,4.67H41.43c-5.44,0-10.32-2.08-13.67-5.37l94.51-82.46c7.26,6.99,17.76,11.52,33.04,14.53,5.88,1.17,12.45,2.09,19.84,2.86h.06c8.68.91,18.46,1.56,29.46,2.08,13.68.64,29.28,1.04,47.06,1.4.05-.01.11,0,.17,0,9.02.16,18.59.33,28.76.49,5.8.37,11.61.69,17.44.98,17.99.92,36.05,1.55,54.11,2.09h.12c16.96.5,33.91.92,50.78,1.41,12.66.35,25.26.76,37.81,1.28,28.34.54,58.55-1.61,87.64-.58h.08c3.78.14,7.53.33,11.26.58.34.01.68.04,1.01.07,5.63.39,11.19.95,16.68,1.71,1.82.14,3.65.26,5.49.38,17.74,1.18,36.24,1.94,55.19,2.4.05.01.11.01.16,0,43.44,1.09,92.14.61,136.9.12,44.76.49,93.46.96,136.9-.12.05.01.11.01.16,0,18.95-.46,37.45-1.22,55.19-2.4,1.83-.12,3.67-.24,5.49-.38,5.49-.76,11.05-1.32,16.68-1.71.33-.03.67-.05,1.01-.07,3.73-.26,7.48-.45,11.26-.58h.08c29.09-1.03,59.3,1.13,87.64.58,12.55-.52,25.16-.92,37.81-1.28,16.87-.49,33.82-.91,50.78-1.41h.12c18.05-.54,36.12-1.17,54.11-2.09,5.83-.28,11.65-.61,17.44-.98,10.17-.16,19.75-.33,28.76-.49.06,0,.12-.01.17,0,17.79-.35,33.38-.76,47.06-1.4,11.01-.52,20.79-1.17,29.46-2.08h.06c7.39-.77,13.96-1.7,19.84-2.86,15.28-3.01,25.78-7.54,33.04-14.53l95.32,83.17Z"/>
  <path class="cls-5" d="M1489.08,30.56v894.35c0,4.39-2.04,8.38-5.35,11.27l-95.32-83.17c.65-.62,1.28-1.26,1.87-1.93h.02c7.01-7.77,10.65-18.34,12.66-32.77h0c1.59-11.33,2.16-25.03,2.61-41.63h0c.39-14.47.67-31.16,1.43-50.38v-.09c.25-6.27.54-12.82.9-19.64.06-1.32.14-2.65.19-3.96.02-.01.02-.03.02-.04.61-12.64,1.1-25.28,1.48-37.95.05-1.26.08-2.52.11-3.8.19-6.17.33-12.34.47-18.53v-.23c1.15-54.73.54-109.58-.05-164.32.59-54.75,1.2-109.59.05-164.32v-.23c-.14-6.19-.28-12.36-.47-18.53-.03-1.28-.06-2.54-.11-3.8-.37-12.67-.87-25.31-1.48-37.95,0-.01,0-.03-.02-.04-.05-1.32-.12-2.65-.19-3.96-.36-6.82-.65-13.37-.9-19.64v-.09c-.76-19.22-1.04-35.91-1.43-50.37h0c-.45-16.62-1.03-30.32-2.61-41.63h0c-2.01-14.45-5.64-25.01-12.66-32.79h-.02c-.59-.66-1.21-1.3-1.87-1.93l95.32-83.17c3.31,2.89,5.35,6.88,5.35,11.27Z"/>
  <path class="cls-3" d="M1483.73,20.99l-95.32,83.02c-7.26-6.97-17.76-11.5-33.04-14.5-5.88-1.16-12.45-2.09-19.84-2.86h-.06c-8.68-.91-18.46-1.56-29.46-2.07-13.68-.64-29.28-1.04-47.06-1.39-.05.01-.11,0-.17,0-9.02-.16-18.59-.32-28.76-.49-5.8-.37-11.61-.69-17.44-.97-17.99-.92-36.05-1.54-54.11-2.09h-.12c-16.96-.5-33.91-.92-50.78-1.41-12.66-.35-25.26-.76-37.81-1.27-28.34-.54-58.55,1.61-87.64.58h-.08c-3.78-.14-7.53-.32-11.26-.58-.34-.01-.68-.04-1.01-.07-5.63-.39-11.19-.95-16.68-1.71-1.82-.14-3.65-.26-5.49-.38-17.74-1.18-36.24-1.94-55.19-2.4-.05-.01-.11-.01-.16,0-43.44-1.08-92.14-.61-136.9-.12-44.76-.49-93.46-.96-136.9.12-.05-.01-.11-.01-.16,0-18.95.46-37.45,1.22-55.19,2.4-1.83.12-3.67.24-5.49.38-5.49.76-11.05,1.31-16.68,1.71-.33.03-.67.05-1.01.07-3.73.26-7.48.45-11.26.58h-.08c-29.09,1.03-59.3-1.12-87.64-.58-12.55.51-25.16.92-37.81,1.27-16.87.49-33.82.91-50.78,1.41h-.12c-18.05.54-36.12,1.16-54.11,2.09-5.83.28-11.65.61-17.44.97-10.17.16-19.75.32-28.76.49-.06,0-.12.01-.17,0-17.79.35-33.38.76-47.06,1.39-11.01.51-20.79,1.16-29.46,2.07h-.06c-7.39.77-13.96,1.69-19.84,2.86-15.28,3.01-25.78,7.53-33.04,14.5L27.76,21.7c3.34-3.29,8.22-5.36,13.67-5.36h1429.39c5.04,0,9.61,1.77,12.92,4.66Z"/>
</svg>